<svg width="21" height="22" viewBox="0 0 21 22" fill="none" xmlns="http://www.w3.org/2000/svg">
<path d="M13.5462 17.1538V17.9231C13.5462 18.7391 13.222 19.5218 12.645 20.0988C12.068 20.6758 11.2853 21 10.4693 21C9.65324 21 8.87061 20.6758 8.29357 20.0988C7.71654 19.5218 7.39237 18.7391 7.39237 17.9231V17.1538M18.7231 15.588C17.4885 14.0769 16.6169 13.3077 16.6169 9.14183C16.6169 5.32692 14.6688 3.96779 13.0654 3.30769C12.8525 3.22019 12.652 3.01923 12.5871 2.80048C12.3058 1.84327 11.5174 1 10.4693 1C9.42121 1 8.63227 1.84375 8.3539 2.80144C8.289 3.0226 8.08852 3.22019 7.87554 3.30769C6.27025 3.96875 4.3241 5.32308 4.3241 9.14183C4.32169 13.3077 3.45006 14.0769 2.21544 15.588C1.7039 16.2139 2.15198 17.1538 3.04669 17.1538H17.8967C18.7866 17.1538 19.2318 16.2111 18.7231 15.588Z" stroke="#F1EAFF" stroke-width="2" stroke-linecap="round" stroke-linejoin="round"/>
<circle cx="16" cy="6" r="5" fill="#FF4D62"/>
</svg>
