<svg width="22" height="22" viewBox="0 0 22 22" fill="none" xmlns="http://www.w3.org/2000/svg">
<path d="M10.6071 8.90042C10.3779 8.54353 10.0391 8.27067 9.64157 8.12284C9.24404 7.97501 8.80927 7.9602 8.4026 8.08063C7.99593 8.20107 7.63933 8.45024 7.38641 8.79071C7.13348 9.13117 6.9979 9.54453 7.00002 9.96865C7.00024 10.3199 7.09476 10.6646 7.27372 10.9668C7.45268 11.269 7.70952 11.5176 8.01739 11.6866C8.32526 11.8556 8.67287 11.9389 9.02391 11.9276C9.37495 11.9164 9.71653 11.8111 10.013 11.6228C9.85885 12.0804 9.57179 12.5687 9.09885 13.0581C9.00836 13.1517 8.95877 13.2774 8.96097 13.4076C8.96207 13.472 8.97584 13.5356 9.00152 13.5948C9.02719 13.6539 9.06426 13.7074 9.11061 13.7522C9.15696 13.797 9.21168 13.8322 9.27165 13.8559C9.33161 13.8795 9.39565 13.8911 9.46011 13.8901C9.59028 13.8878 9.71424 13.834 9.80473 13.7404C11.553 11.9287 11.3259 9.95924 10.6071 8.90277V8.90042ZM15.313 8.90042C15.0838 8.54353 14.745 8.27067 14.3475 8.12284C13.9499 7.97501 13.5151 7.9602 13.1085 8.08063C12.7018 8.20107 12.3452 8.45024 12.0923 8.79071C11.8394 9.13117 11.7038 9.54453 11.7059 9.96865C11.7061 10.3199 11.8006 10.6646 11.9796 10.9668C12.1586 11.269 12.4154 11.5176 12.7233 11.6866C13.0311 11.8556 13.3788 11.9389 13.7298 11.9276C14.0808 11.9164 14.4224 11.8111 14.7188 11.6228C14.5647 12.0804 14.2777 12.5687 13.8047 13.0581C13.7599 13.1044 13.7247 13.1591 13.701 13.2191C13.6774 13.2791 13.6658 13.3431 13.6669 13.4076C13.6679 13.472 13.6817 13.5356 13.7074 13.5948C13.7331 13.6539 13.7701 13.7074 13.8165 13.7522C13.8628 13.797 13.9176 13.8322 13.9775 13.8559C14.0375 13.8795 14.1015 13.8911 14.166 13.8901C14.2304 13.889 14.2941 13.8752 14.3532 13.8495C14.4123 13.8238 14.4658 13.7868 14.5106 13.7404C16.2588 11.9287 16.0318 9.95924 15.313 8.90277V8.90042Z" fill="#F1EAFF"/>
<path d="M2.8986 16.9615C2.95581 16.751 2.82937 16.4582 2.7087 16.2471C2.67112 16.1842 2.63036 16.1232 2.58658 16.0644C1.55162 14.4948 0.999981 12.6561 1.00005 10.776C0.98322 5.37933 5.45821 1 10.9919 1C15.8178 1 19.8462 4.34327 20.7875 8.78125C20.9285 9.43923 20.9998 10.1102 21 10.7832C21 16.1875 16.6976 20.6356 11.164 20.6356C10.2842 20.6356 9.09666 20.4144 8.44907 20.2332C7.80147 20.0519 7.15484 19.8115 6.98801 19.7471C6.81739 19.6815 6.63619 19.6478 6.4534 19.6476C6.25374 19.6468 6.05601 19.6866 5.87215 19.7644L2.6111 20.9413C2.53966 20.9721 2.46396 20.9919 2.38658 21C2.32552 20.9998 2.26511 20.9875 2.20884 20.9638C2.15256 20.9401 2.10155 20.9055 2.05876 20.8619C2.01597 20.8184 1.98224 20.7668 1.95953 20.7101C1.93683 20.6534 1.9256 20.5928 1.92649 20.5317C1.9305 20.4781 1.94017 20.4251 1.95533 20.3736L2.8986 16.9615Z" stroke="#F1EAFF" stroke-width="2" stroke-miterlimit="10" stroke-linecap="round"/>
</svg>
