<svg id="Layer_1" data-name="Layer 1" xmlns="http://www.w3.org/2000/svg" viewBox="0 0 375.129 85.695"><defs><style>.cls-1{fill:#efc514;}</style></defs><polygon class="cls-1" points="73.001 85.496 45.137 70.974 17.378 85.695 22.579 54.707 0 32.856 31.078 28.226 44.883 0 58.89 28.126 90 32.533 67.579 54.546 73.001 85.496"/><polygon class="cls-1" points="182.889 85.496 155.025 70.974 127.266 85.695 132.467 54.707 109.888 32.856 140.966 28.226 154.771 0 168.778 28.126 199.888 32.533 177.467 54.546 182.889 85.496"/><polygon class="cls-1" points="292.682 85.496 264.818 70.974 237.059 85.695 242.26 54.707 219.681 32.856 250.759 28.226 264.564 0 278.571 28.126 309.681 32.533 287.26 54.546 292.682 85.496"/><polygon class="cls-1" points="375.129 71.046 375.129 0.235 375.012 0 361.207 28.226 330.129 32.856 352.708 54.707 347.507 85.695 375.129 71.046"/></svg>