<svg id="Layer_1" data-name="Layer 1" xmlns="http://www.w3.org/2000/svg" viewBox="0 0 266.545 85.747"><defs><style>.cls-1{fill:#efc514;}</style></defs><polygon class="cls-1" points="73.001 85.548 45.137 71.026 17.378 85.747 22.579 54.759 0 32.908 31.078 28.278 44.883 0.052 58.89 28.179 90 32.586 67.579 54.598 73.001 85.548"/><polygon class="cls-1" points="182.889 85.548 155.025 71.026 127.266 85.747 132.467 54.759 109.888 32.908 140.966 28.278 154.771 0.052 168.778 28.179 199.888 32.586 177.467 54.598 182.889 85.548"/><polygon class="cls-1" points="266.545 71.046 266.545 0.235 266.428 0 252.624 28.226 221.545 32.856 244.124 54.707 238.923 85.695 266.545 71.046"/></svg>