<svg xmlns="http://www.w3.org/2000/svg" version="1.1" width="600px" height="600px" viewBox="0 0 200 200" style="overflow:hidden!important;"><g id="svga-group-wrapper"><g id="svga-group-backs-single"><path id="SvgjsPath45342" d="M0 0h200v200H0V0z" fill="#ececec" stroke-width="none" opacity="1" stroke="none"></path></g><g id="svga-group-humanwrap-move" transform="matrix(1,0,0,1,0,0)"><g id="svga-group-humanwrap"><g id="svga-group-hair-back-move" transform="matrix(1,0,0,1,0,0)"><g id="svga-group-hair-back"></g></g><g id="svga-group-humanbody-back"><path id="SvgjsPath45234" d="M77.6 118.3c0 19.3 3.4 44.1-10 51.9-13.4 7.9-31.9 11.3-37.8 22s-4.4 25.3-4.4 25.3h149.3s.7-18.9-5.1-26.4c-8.1-10.4-27.8-15.5-37.7-20.9s-13.4-25.1-13.4-52.4l-40.9.5z" fill="#ffffff" stroke-width="none" opacity="1"></path><path id="SvgjsPath45235" d="M175.8 218.7H24.4l-.1-1c-.1-.6-1.5-15.1 4.5-26 4.1-7.4 13.5-11.3 23.5-15.5 5-2.1 10.2-4.3 14.8-6.9 10.6-6.2 10.1-23.9 9.6-41-.1-3.5-.2-6.8-.2-10v-1.1l43.2-.4v1.1c0 29.9 4.2 46.7 12.8 51.4 2.9 1.6 6.7 3.2 10.8 4.9 10 4.1 21.3 8.8 27.2 16.3 6.1 7.7 5.4 26.4 5.4 27.1l-.1 1.1zm-149.3-2.2h147.1c0-4.1-.2-18.5-4.9-24.6-5.5-7-16.6-11.6-26.3-15.6-4.1-1.7-8-3.3-11-5-5.1-2.8-8.7-8.9-10.9-18.7-2-8.4-2.9-19.4-3-33.5l-38.6.4c0 2.8.1 5.7.2 8.8.5 17.8 1 36.1-10.7 43-4.7 2.7-9.9 4.9-15 7.1-9.6 4-18.7 7.8-22.4 14.5-5 8.6-4.7 20.1-4.5 23.6z" fill="#000000" stroke-width="none" opacity="1"></path><path id="SvgjsPath45236" d="M93.9 153.8c-.5 1.8-.4 3.4.5 5.2.8 1.6 2.1 2.7 3.9 2.9.4 0 .7-.5.5-.8-1.6-2.2-3.5-4.2-3.7-7.1 0-.7-1-.9-1.2-.2zm18.6 33.7c8.8.5 18.1-.7 26.6-2.9.7-.2.6-1.4-.2-1.3-8.8 1.1-17.7 2-26.5 3.3-.5.1-.3.9.1.9zm-49.4-5c3.8.9 7.6 1.9 11.5 2.8 3.6.8 7.4 2 11.1 2.1.7 0 .8-.9.2-1.2-3.5-1.4-7.5-1.7-11.2-2.5-3.8-.7-7.5-1.3-11.3-2-.5 0-.7.7-.3.8z" fill="#000000" stroke-width="none" opacity="1"></path></g><g id="svga-group-chinshadow-single"></g><g id="svga-group-humanbody-front"></g><g id="svga-group-clothes-single"><path id="SvgjsPath45116" d="M171.5 182.77c-1.41-1.21-5.23-1.81-5.23-1.81s-6.03-3.22-9.65-4.02c-3.62-.8-16.28-6.03-16.28-6.03l2.81-2.21s-12.06-7.44-14.87-9.45c-2.81-2.01-4.62-5.83-5.83-6.03 0 0-.6 2.41-.2 6.83.4 4.42 3.62 14.67 3.62 14.67s-1.64 12.35-2.66 16.33c-8.37 6.39-23.24 16.8-23.24 16.8-10.3-6.02-20.65-14.2-25.57-18.26-1.01-4.92-2.33-14.87-2.33-14.87s3.22-10.25 3.62-14.67c.4-4.42-.2-6.83-.2-6.83-1.21.2-3.01 4.02-5.83 6.03s-14.87 9.45-14.87 9.45l2.81 2.21s-12.66 5.23-16.28 6.03c-3.62.8-9.65 4.02-9.65 4.02s-3.82.6-5.23 1.81c-1.41 1.21-4.82 22.91-4.42 34.97H175.91c.42-12.06-3-33.77-4.41-34.97z" fill="#ffffff" stroke-width="none" opacity="1"></path><path id="SvgjsPath45117" d="M172.15 182.01c-1.45-1.24-4.7-1.86-5.55-2.01-.97-.51-6.32-3.27-9.75-4.04-2.74-.61-11.02-3.91-14.53-5.33l1.46-1.15c.26-.2.4-.52.38-.84s-.2-.62-.47-.79c-.12-.07-12.06-7.44-14.82-9.41-1.35-.96-2.51-2.46-3.44-3.66-1.07-1.39-1.85-2.39-2.81-2.55a.987.987 0 0 0-1.13.74c-.03.1-.64 2.63-.23 7.17.38 4.17 3.12 13.13 3.59 14.67-.22 1.62-1.6 11.82-2.52 15.66-7.43 5.65-19.72 14.31-22.4 16.19-9.83-5.82-19.7-13.59-24.62-17.63-.89-4.49-2.02-12.78-2.21-14.23 0-.01.01-.04.02-.05.16.1.42-.06.28-.24-.05-.06-.1-.13-.15-.19.73-2.39 3.09-10.33 3.45-14.19.41-4.54-.2-7.06-.23-7.17-.13-.51-.62-.84-1.13-.74-.96.16-1.74 1.16-2.81 2.55-.6.77-1.29 1.65-2.07 2.44-.09 0-.18.09-.18.19-.38.37-.77.73-1.19 1.03-2.75 1.97-14.7 9.33-14.82 9.41-.28.17-.46.47-.47.79s.12.64.38.84l1.46 1.15c-3.5 1.42-11.79 4.72-14.53 5.33-3.43.76-8.78 3.52-9.75 4.04-.85.15-4.11.77-5.55 2.01-2.06 1.76-5.13 24.83-4.77 35.76.02.54.46.97 1 .97h55.87c.09 0 .18-.03.27-.06v.06h41.52c0-.03 0-.05-.01-.08.12.05.24.08.36.08h55.87c.54 0 .98-.43 1-.97.37-10.92-2.71-33.99-4.77-35.75zm-1.97 34.73c1.64-1.41 3.19-2.95 4.7-4.48.04 1.01.06 2 .07 2.95-.53.54-1.1 1.05-1.69 1.53h-3.08zm-4 0c2.9-2.35 5.71-4.82 8.57-7.22.04.72.08 1.43.11 2.13-1.9 1.71-3.86 3.37-5.74 5.1h-2.94zm4.6-33.28c.92 1.29 3.21 14.33 3.94 25.7-.08-.04-.18-.06-.26.01-2.75 2.28-5.55 4.52-8.27 6.84-.07-.06-.17-.07-.24.01-.22.23-.43.48-.64.72h-2.42c2.91-2.62 5.8-5.26 8.7-7.89.25-.22-.12-.59-.36-.36-3.07 2.75-6.16 5.49-9.23 8.25h-2.27c3.41-3.4 6.88-6.72 10.52-9.88.24-.21-.11-.57-.35-.35-3.77 3.3-7.46 6.69-11 10.24h-2.35c3.66-3.69 7.33-7.32 11.29-10.69.22-.19-.1-.5-.31-.31-4.07 3.41-8.07 6.99-11.66 10.9.04-.61.09-1.42.16-2.35.09-.07.18-.14.3-.23.08-.06.04-.19-.04-.24 3.25-3.46 6.6-6.8 10.19-9.92.22-.19-.1-.51-.32-.32-3.52 3.01-6.9 6.2-10.04 9.6.07-.85.16-1.77.26-2.74.25-.16.51-.31.76-.47.17-.11.02-.36-.16-.28-.05.02-.1.05-.16.07 2.94-2.94 5.86-5.88 9.01-8.61.2-.17-.09-.46-.29-.29-3.12 2.67-6.21 5.44-9.03 8.43.1-.89.22-1.82.34-2.75.05-.05.05-.13.03-.19.01-.09.02-.19.04-.28 2.45-2.6 5.02-5.06 7.76-7.35.18-.15-.08-.41-.26-.26a91.8 91.8 0 0 0-7.39 6.83c.13-.87.27-1.74.43-2.59.83-.96 1.56-2 2.45-2.92.98-1.03 2.03-1.97 3.16-2.85.15-.12-.05-.39-.21-.27-1.84 1.4-3.8 3.07-5.19 5.01.23-1.13.49-2.21.77-3.2.31-.47.62-.95.98-1.39.62-.75 1.3-1.44 2.04-2.07.14-.12-.06-.31-.2-.2-.8.69-1.69 1.52-2.43 2.43.3-.86.63-1.61.98-2.22 2.8-4.75 5.76-10.94 6.73-13.01 1.39.26 3.52.83 4.24 1.44zm-33.3-8.6c.28-.27.56-.54.84-.8.73-.67 1.45-1.34 2.17-2.01.25.1.59.24.99.4-1.07 1.09-2.14 2.18-3.19 3.28l-.81-.87zm3.92-6.07c-.04.02-.08.03-.12.06l-5.43 4.21c-2.31-2.63-3.95-4.73-3.98-4.77a.992.992 0 0 0-1.4-.18c-.44.34-.52.96-.18 1.4.23.29 5.61 7.25 10.96 11.85 3.69 3.18 6.92 5.6 8.56 6.8-3.33 2.4-12.87 9.37-15.76 12.51-2.93 3.18-6.98 12.16-8.34 15.27-1.22-1.72-2.66-3.3-4.04-4.9l.21-2.13c1.29 1.79 2.58 3.64 4.08 5.23.14.14.37-.04.27-.21-1.22-2.02-2.8-3.88-4.28-5.75.09-.86.17-1.73.26-2.6 1.42 1.83 2.82 3.69 4.35 5.42.11.12.33-.04.23-.18-1.41-2-2.99-3.89-4.53-5.79.17-1.67.35-3.32.53-4.86 1.2 1.57 2.42 3.14 3.73 4.62.11.13.33-.04.24-.18-1.22-1.72-2.56-3.36-3.91-4.99.14-1.19.28-2.31.41-3.31 1.16 1.62 2.3 3.28 3.6 4.78.09.11.27-.03.2-.15-1.11-1.82-2.44-3.53-3.72-5.25.13-.93.25-1.73.36-2.38 1.15 1.59 2.3 3.18 3.58 4.65.06.07.18-.02.13-.1-1.09-1.77-2.36-3.44-3.61-5.1.07-.36.14-.65.2-.84.11-.36.23-.84.36-1.4.62.86 1.23 1.71 1.89 2.54.05.06.15-.02.11-.09-.61-.96-1.26-1.89-1.92-2.83.43-2 .91-4.91 1.33-7.66.58-1.19 1.12-2.4 1.66-3.61.1-.23-.23-.43-.34-.2-.37.81-.75 1.62-1.11 2.43.25-1.71.48-3.28.63-4.42.74-1.33 1.53-2.63 2.41-3.89.14-.2-.18-.38-.32-.19-.67.94-1.32 1.91-1.93 2.9l.09-.64c0-.02-.01-.04-.01-.06.76-1.43 1.47-2.9 2.22-4.32.07-.14-.13-.26-.21-.12-.69 1.23-1.44 2.46-2.16 3.7-.07-.22-.16-.53-.28-.91.97-1.58 1.82-3.27 2.74-4.85.13-.23-.22-.43-.35-.21-.84 1.42-1.77 2.84-2.61 4.29-.08-.28-.17-.57-.26-.89 1.32-2.03 2.39-4.31 3.55-6.39.12-.22-.21-.42-.34-.2-1.1 1.91-2.4 3.83-3.43 5.81-.1-.35-.2-.71-.31-1.09 1.6-2.2 2.98-4.61 4.42-6.91.13-.21-.19-.39-.32-.19-1.42 2.15-2.96 4.29-4.26 6.53-.1-.37-.21-.75-.31-1.14 1.16-2.3 2.41-4.4 4.24-6.27.18-.18-.1-.46-.28-.28-1.67 1.66-3.2 3.62-4.16 5.79-.11-.41-.21-.82-.32-1.23.07.02.15.01.2-.07 1.24-1.76 2.25-3.74 3.29-5.64 2.57 1.79 10.42 6.67 13.49 8.58zm-18.14-8.82c-.02-.23-.03-.43-.04-.64.16-.34.32-.68.5-.99.27-.48.57-.94.88-1.39.23.29.48.58.73.87-.36.5-.71 1-1.04 1.53-.3.48-.63 1.01-.91 1.56-.06-.35-.1-.66-.12-.94zm-.13-3.04c.22-.34.44-.68.65-1.02.02.03.05.06.07.09l.43.55a22.446 22.446 0 0 0-1.13 1.75c-.02-.48-.02-.94-.02-1.37zm1.46 2.81c.31-.55.65-1.09 1-1.62.25.28.52.54.79.8-1.01 1.32-1.97 2.78-2.57 4.33-.1-.49-.2-.96-.28-1.4.39-.67.68-1.43 1.06-2.11zm2.13-.49c.29.26.59.51.9.74-1.13 1.83-2.35 3.68-3.27 5.61-.12-.51-.24-1.01-.36-1.5.89-1.65 1.7-3.29 2.73-4.85zm-3.24-3.72c-.11.14-.21.28-.33.43.01-.28.03-.55.05-.78.1.11.18.23.28.35zM67.67 169.5c.06-.07.08-.16.12-.24 1.19 1.33 2.39 2.76 3.68 4.04-.14.45-.24.78-.29.96-.49-.44-.99-.89-1.45-1.36a37.5 37.5 0 0 1-2.48-2.87l.42-.53zm.81-8.24c1.6 1.71 3.19 3.5 4.95 5.04-.04.17-.09.35-.13.52-1.63-1.85-3.62-3.5-5.43-5.16l.61-.4zm.94-.62c1.38 1.53 2.78 3.1 4.31 4.46l-.15.62c-1.48-1.65-3.15-3.16-4.76-4.68.21-.14.41-.28.6-.4zm.83-.57c.01-.01.02-.02.03-.02 1.19 1.29 2.38 2.68 3.76 3.71-.05.23-.1.47-.16.7-1.26-1.43-2.68-2.76-4.07-4.08.16-.12.31-.22.44-.31zm1.25-1.06c.89 1.12 1.82 2.26 2.86 3.19-.07.35-.14.71-.22 1.08-1.01-1.27-2.31-2.4-3.54-3.5.31-.25.62-.5.9-.77zm.91-.93c.71.84 1.43 1.69 2.23 2.43-.04.33-.1.68-.16 1.05-.77-1.03-1.69-1.99-2.6-2.92.17-.2.36-.37.53-.56zm.88-1.04c.47.64.96 1.29 1.48 1.89-.02.27-.03.54-.06.82-.62-.71-1.31-1.39-1.98-2.05.19-.22.38-.44.56-.66zm.84-1.07c.17.23.37.44.52.65l.18.24c0 .37 0 .77-.01 1.2-.39-.48-.8-.95-1.21-1.41.17-.21.34-.43.5-.64 0-.01.01-.03.02-.04zm.66-.2-.24-.33.21-.27.03.6zm-7.25 6.1c1.8 1.87 3.58 3.93 5.59 5.58l-.27 1.02c-1.31-1.73-2.97-3.28-4.44-4.86-.19-.21-.5.1-.31.31 1.5 1.66 2.94 3.53 4.62 5.02-.07.26-.14.52-.22.78-.28-.27-.56-.53-.84-.8-.82-.81-1.66-1.61-2.49-2.41-.16-.16-.41.08-.25.25.8.83 1.59 1.67 2.39 2.5.33.34.66.71 1.01 1.06-.09.32-.18.62-.26.92-.44-.44-.89-.85-1.32-1.28-.95-.94-1.92-1.85-2.88-2.77-.14-.14-.35.07-.22.22.91.98 1.81 1.96 2.74 2.92.5.51.98 1.06 1.5 1.57-.07.23-.13.45-.19.65-1.23-1.29-2.58-2.49-3.83-3.69a.938.938 0 0 0-.38-.74.99.99 0 0 0-1.4.18c-.03.04-1.66 2.14-3.98 4.77l-5.43-4.21c-.04-.03-.08-.04-.12-.06 2.36-1.48 7.55-4.7 10.98-6.93zm-36.11 20.15c.17.36.4.85.68 1.43-1.06-.29-2.14-.54-3.21-.78.84-.29 1.79-.51 2.53-.65zm-3.31.94c1.42.39 2.85.82 4.3 1.14.13.27.26.54.41.84-1.89-.53-3.85-.91-5.78-1.29.02-.04.04-.09.06-.11.23-.22.59-.41 1.01-.58zm-5.11 33.78c-.01-.54-.01-1.1 0-1.67 1.91.46 3.88.86 5.81 1.08.24.03.27-.34.05-.41-1.89-.53-3.9-.91-5.86-1.2.01-.37.01-.74.02-1.12 3.02.66 6.06 1.42 9.13 1.79.2.02.23-.29.05-.35-2.99-.83-6.11-1.29-9.16-1.84.01-.41.03-.82.05-1.23 2.32.51 4.64 1.04 7 1.33.21.03.25-.32.05-.37-2.3-.6-4.67-.98-7.03-1.37.03-.75.08-1.52.13-2.29 1.69.43 3.54.67 5.24.56.25-.02.25-.36 0-.39-1.75-.21-3.47-.4-5.21-.68.05-.74.11-1.48.17-2.23 2.08.49 4.19 1 6.31 1.23.21.02.24-.3.05-.35-2.06-.6-4.21-.93-6.33-1.27.04-.5.09-.99.13-1.49 2.25.53 4.5 1.09 6.78 1.39.23.03.26-.33.05-.39-2.21-.66-4.51-1.06-6.79-1.5.04-.43.09-.87.13-1.3 2.25.4 4.5.86 6.77 1.04.22.02.26-.33.05-.38-2.22-.5-4.52-.73-6.79-1.01.09-.84.18-1.67.28-2.49 2.39.6 4.8 1.29 7.24 1.55.2.02.22-.28.05-.34-2.32-.79-4.81-1.17-7.23-1.63l.18-1.39c2.43.62 4.87 1.24 7.34 1.57.22.03.25-.32.05-.38-2.38-.74-4.87-1.19-7.33-1.64.09-.68.18-1.35.27-2 2.42.4 4.88.82 7.33.96.19.01.24-.3.05-.34-2.39-.54-4.87-.8-7.31-1.08.12-.83.24-1.63.36-2.4 2.6.56 5.21 1.18 7.85 1.48.2.02.24-.3.05-.35-2.57-.67-5.22-1.04-7.85-1.45.1-.61.2-1.2.29-1.77 2.16.52 4.36 1.07 6.56 1.3.23.02.26-.33.05-.39-2.11-.65-4.34-1-6.53-1.36.13-.73.26-1.42.38-2.06 2.15.65 4.32 1.31 6.52 1.72.24.04.33-.28.1-.36-2.12-.76-4.34-1.29-6.53-1.82.11-.56.22-1.07.33-1.53 2.35.62 4.74 1.4 7.14 1.71.22.03.23-.3.05-.36-2.26-.85-4.72-1.26-7.08-1.81.15-.64.3-1.16.42-1.53 2.07.51 4.15 1.04 6.25 1.36 1.36 2.78 3.25 6.47 5.07 9.56 2.73 4.63 3.7 17.63 3.94 21.71H23.01zm16.87-22.72c-2.72-4.61-5.6-10.62-6.6-12.76 1.89-.95 5.73-2.78 8.26-3.34 3.3-.73 13.61-4.92 15.97-5.89l3.25 2.52c-1.65 1.8-3.52 3.71-5.36 5.29-5.23 4.5-9.5 7.46-9.55 7.49-.27.19-.43.49-.43.82s.15.63.42.82c.02.02.51.36 1.31.94-.36.49-.54 1.35-.26 1.72.06.08.2.11.25 0 .16-.32.09-.7.2-1.04.05-.14.12-.27.19-.4.33.24.7.5 1.09.8-.21.43-.4.87-.51 1.32-.03.14.15.22.23.1.24-.35.43-.76.6-1.18.29.21.59.43.91.66-.16.41-.26.84-.24 1.27.01.12.18.15.21.03.1-.38.18-.74.3-1.1.42.31.85.63 1.3.96-.18.39-.34.78-.43 1.17-.03.14.15.22.24.1.21-.31.37-.67.52-1.03.4.3.81.61 1.23.92-.11.34-.2.67-.23 1.01-.02.16.23.22.31.08.13-.25.23-.52.32-.8.4.3.8.61 1.21.92-.15.4-.29.8-.37 1.2-.03.18.2.3.3.13.19-.32.34-.66.48-1.01.28.22.56.43.84.65-.1.29-.21.58-.33.88-.05.13.15.24.24.14.19-.22.34-.46.47-.72.36.28.71.55 1.05.83-.21.5-.4 1.01-.49 1.51-.03.17.18.27.28.12.25-.39.44-.85.61-1.31.2.16.4.32.6.49-.37.73-.62 1.5-.55 2.18.01.14.2.22.28.08.33-.56.41-1.25.66-1.85.01-.02.02-.04.03-.07.37.3.73.6 1.07.89-.1.17-.2.34-.3.52-.32.56-.74 1.14-.89 1.77-.04.16.16.28.27.16.45-.47.71-1.13 1.01-1.7.08-.15.16-.31.24-.46.31.27.61.53.89.78-.19.36-.39.73-.58 1.1-.33.62-.78 1.25-.92 1.94-.03.15.15.28.27.16.49-.51.74-1.24 1.06-1.86.17-.34.35-.68.52-1.02.43.39.79.75 1.08 1.07.02.02.04.05.06.07-.53.98-1.09 2-1.38 3.03-.06.2.2.28.31.13.58-.81 1-1.79 1.41-2.75.26.32.53.69.8 1.09-.25.44-.51.89-.76 1.33-.36.62-.8 1.25-1 1.94-.04.14.15.27.26.15.48-.53.78-1.24 1.12-1.87l.63-1.17c.17.27.35.54.52.83-.92 1.62-1.82 3.24-2.71 4.87-.15.27.26.51.41.24.86-1.57 1.7-3.16 2.53-4.75.23.38.45.79.68 1.2-1.05 1.95-2.2 3.86-3.19 5.84-.1.19.17.43.32.24 1.3-1.66 2.3-3.69 3.08-5.7.28.51.56 1.04.83 1.57-1.16 2.17-2.41 4.31-3.44 6.54-.11.25.16.45.37.28.11-.09.23-.18.34-.27.11-.09.06-.2-.04-.26 1.08-1.9 2.01-3.9 2.99-5.85.24.48.48.97.72 1.46-1.27 2.07-2.55 4.25-3.37 6.52H44.11c-.23-4.05-1.21-17.59-4.23-22.71zm29.87 22.72h-1.52l1.17-1.92c.23.53.44 1.01.61 1.42-.09.16-.18.33-.26.5zm-2.1 0H66.4c.7-1.32 1.39-2.64 2.08-3.96.25.55.49 1.08.7 1.57-.5.79-1.02 1.59-1.53 2.39zm-1.84 0h-1.37c1.09-1.97 2.03-4.01 3.1-6 .26.54.51 1.08.75 1.6-.83 1.47-1.66 2.93-2.48 4.4zm6.59 0c-.78-1.89-5.25-12.55-8.49-16.08-.9-.98-2.44-2.32-4.24-3.79.06-.08.1-.17.16-.26.15-.21-.19-.4-.34-.2-.05.06-.09.13-.14.2-1.15-.93-2.39-1.9-3.63-2.85.01-.02.01-.04.02-.06.07-.2-.18-.29-.31-.17-2.9-2.21-5.74-4.28-7.27-5.38 1.64-1.19 4.87-3.62 8.56-6.8 4.3-3.7 8.61-8.91 10.26-10.97 1.17 1.67 2.55 3.42 4.15 4.72.02.17.06.42.1.73-1.45-1.53-2.98-3-4.29-4.67-.11-.14-.36.05-.25.19 1.42 1.86 2.9 3.83 4.67 5.42.05.35.1.74.16 1.16-.17-.16-.34-.31-.5-.47-.97-.94-1.97-1.86-2.93-2.81-.15-.14-.37.08-.23.23.96.95 1.88 1.95 2.83 2.91.31.32.63.66.94 1 .04.3.09.61.13.92a.435.435 0 0 1-.06-.07c-.83-.92-1.67-1.82-2.52-2.73-.15-.16-.36.07-.23.23.75.9 1.5 1.8 2.27 2.69.23.26.45.54.68.81.05.36.11.72.16 1.09l-1.59-1.8c-.13-.15-.34.07-.22.22.61.75 1.21 1.5 1.82 2.24l.1.13c.07.44.14.88.21 1.33l-.03-.03c-.57-.56-1.15-1.1-1.72-1.65-.15-.14-.37.08-.23.23.54.58 1.09 1.16 1.64 1.73.15.16.31.32.46.49.07.44.14.87.21 1.3l-.75-1.02c-.14-.2-.48-.01-.33.19.41.58.83 1.16 1.24 1.74.38 2.18.75 4.08 1.06 5.07.76 2.42 2.25 17.82 2.88 24.83H72.4zm46.74 0H78.82c-.36-4.02-1.81-19.82-2.76-24.51 5.48 4.41 14.49 11.28 23.41 16.49.34.2.76.18 1.08-.04.67-.47 12.78-8.95 21.12-15.19-.19 1.15-.38 2.61-.59 4.24-.02.04-.02.07-.01.12-.81 6.59-1.67 15.93-1.93 18.89zm2.17-1.87c.54.68 1.16 1.33 1.85 1.87h-.96c-.1-.28-.27-.52-.42-.77-.07-.11-.25-.01-.18.1.14.23.26.46.43.67h-.88c.04-.57.1-1.2.16-1.87zm2.83 1.87c-.98-.81-1.92-1.61-2.76-2.59.07-.77.15-1.59.23-2.44 1.27 1.57 2.52 3.18 3.93 4.6-.07.17-.14.32-.18.43h-1.22zm3.4 0c1.32-3.02 5.29-11.8 7.98-14.72 3.3-3.58 16.45-12.95 16.58-13.05.27-.19.42-.5.42-.82s-.16-.63-.43-.82c-.03-.02-1.61-1.11-4.01-2.97.03-.06.06-.12.12-.18.17-.18-.09-.44-.27-.27-.06.06-.11.13-.16.2-.29-.22-.58-.46-.89-.7.17-.35.34-.7.52-1.05.1-.21-.2-.39-.31-.18-.17.33-.34.66-.52.99-.36-.28-.72-.58-1.1-.89.03-.05.06-.11.09-.16.28-.51.56-1.03.85-1.54.11-.2-.19-.38-.31-.18-.3.5-.6 1.01-.9 1.51-.02.03-.04.07-.06.1-.33-.27-.67-.55-1.01-.84.3-.36.63-.67 1-.95.19-.14.01-.46-.19-.32-.4.29-.78.61-1.11.98l-.03.03c-.28-.24-.57-.48-.86-.73.1-.16.21-.32.33-.46.4-.48.87-.89 1.37-1.26.2-.15.01-.48-.2-.34-.54.37-1.04.8-1.48 1.29-.12.13-.26.29-.39.45-.01-.01-.02-.01-.03-.02-.2-.17-.41-.36-.61-.55.22-.31.43-.62.68-.91.53-.62 1.12-1.19 1.75-1.71.21-.18-.09-.47-.3-.3-.87.71-1.82 1.59-2.53 2.57-.23-.21-.46-.42-.69-.64.24-.27.47-.56.7-.83.46-.53.91-1.07 1.37-1.6.18-.21-.12-.52-.31-.31l-1.38 1.59c-.24.27-.49.54-.73.82-.24-.23-.48-.46-.72-.7 1.04-1.27 2.06-2.52 3.3-3.64.17-.16-.08-.41-.26-.26-1.22 1.06-2.43 2.21-3.42 3.51-.26-.26-.52-.52-.77-.79 1.11-1.14 2.21-2.29 3.31-3.44v-.01c3.72 1.51 11.65 4.65 14.47 5.28 2.53.56 6.37 2.39 8.26 3.34-1 2.13-3.88 8.15-6.6 12.76-3.02 5.12-4 18.66-4.23 22.72h-26.29zm46.66 0c.26-.24.52-.48.76-.74 0 .25 0 .5-.01.74h-.75z" fill="#000000" stroke-width="none" opacity="1"></path></g><g id="svga-group-head" transform="matrix(1,0,0,1,0,0)"><g id="svga-group-ears-left-move" transform="matrix(1,0,0,1,0,0)"><g id="svga-group-ears-left"><path id="SvgjsPath45134" d="M59.9 81.9s-4.4-4.7-5.8-6.2c-1.4-1.4-3.1-4.7-5-4.1-1.9.5-1.2 2.7-1.3 5.8-.1 3.1.3 9.1 2.2 12.4 1.9 3.3 2.9 4.5 3.5 8 .6 3.5 2.8 4.2 4.1 3.2 1.3-1 4.3-7 4.4-10.2 0-3.2-1.2-7.5-2.1-8.9z" fill="#ffffff" stroke-width="none" opacity="1"></path><path id="SvgjsPath45135" d="M55.2 102.2c-.8-.3-2.3-1.3-2.8-4.2-.5-2.9-1.2-4-2.7-6.5l-.6-1.1c-2.1-3.6-2.5-10.1-2.4-13v-2c0-2-.1-4.1 2.1-4.7 2.1-.6 3.7 1.5 5 3.2.4.5.7.9 1 1.2 1.4 1.4 5.8 6.2 5.8 6.2l.1.1c.9 1.4 2.3 6 2.2 9.4-.1 3.4-3.2 9.8-4.8 11-.5.4-1.2.6-1.8.6-.4 0-.7-.1-1.1-.2zm-1.8-25.7c-.4-.4-.7-.9-1.1-1.4-.8-1.1-2.1-2.7-2.9-2.5-.6.2-.7.6-.6 2.8v2.1c-.1 3.1.3 8.9 2.1 11.9l.6 1.1c1.5 2.6 2.4 4 3 7.2.3 1.4.8 2.4 1.5 2.7.3.1.7.1 1-.1 1-.8 3.9-6.5 4-9.4.1-3-1.1-7.1-1.8-8.2-.7-.7-4.6-4.9-5.8-6.2z" fill="#000000" stroke-width="none" opacity="1"></path><path id="SvgjsPath45136" d="M48.2 76.3c.5-1.9 2.1-1 3 .4 1.9 2.6 3.2 6.6 3.6 10 0 .1-.1.2-.1.1-.1.1-.2.1-.2-.1-1.2-.5-1.6-.2-1.2.8 0 .3.1.6.3.9.2.5.6 1 .9 1.5.5.8 1.2 1.5 1.7 2.3.2.3 0 .6-.2.4-1.4-1-3.9-4.3-3.2-6.6.3-.8 1-1.1 1.5-.7-1.1-3.6-4-12-5.8-8.8-.1.1-.3 0-.3-.2z" fill="#000000" stroke-width="none" opacity="1"></path><path id="SvgjsPath45137" d="M51.1 76.8c-1 2-1.4 4.4-.9 7.1.3 1.5 2.9 9.5 4.9 8.4.2-.1.4.3.2.5-2 1.8-4.2-4.5-4.9-6.5-1.1-3.4-1.4-7.5.5-9.7.1-.1.2.1.2.2z" fill="#000000" stroke-width="none" opacity="1"></path></g></g><g id="svga-group-ears-right-move" transform="matrix(1,0,0,1,0,0)"><g id="svga-group-ears-right"><path id="SvgjsPath45138" d="M140.1 81.9s4.4-4.7 5.8-6.2c1.4-1.4 3.1-4.7 5-4.1 1.9.5 1.2 2.7 1.3 5.8s-.3 9.1-2.2 12.4c-1.9 3.3-2.9 4.5-3.5 8-.6 3.5-2.8 4.2-4.1 3.2-1.3-1-4.3-7-4.4-10.2 0-3.2 1.2-7.5 2.1-8.9z" fill="#ffffff" stroke-width="none" opacity="1"></path><path id="SvgjsPath45139" d="M143.7 102.4c-.6 0-1.3-.2-1.8-.6-1.5-1.2-4.7-7.5-4.8-11-.1-3.4 1.2-8 2.2-9.4l.1-.1s4.4-4.7 5.8-6.2c.3-.3.6-.8 1-1.2 1.3-1.7 2.9-3.8 5-3.2 2.2.6 2.1 2.7 2.1 4.7v2c.1 2.9-.2 9.4-2.4 13l-.6 1.1c-1.5 2.5-2.2 3.7-2.7 6.5-.5 2.9-2 3.9-2.8 4.2-.4.1-.7.2-1.1.2zm-2.8-19.9c-.7 1.2-1.9 5.2-1.8 8.2.1 2.9 2.9 8.6 4 9.4.3.2.6.3 1 .1.7-.3 1.3-1.3 1.5-2.7.6-3.2 1.4-4.7 3-7.2l.6-1.1c1.8-3 2.2-8.7 2.1-11.9v-2.1c.1-2.2 0-2.6-.6-2.8-.8-.2-2 1.4-2.9 2.5-.4.5-.8 1-1.1 1.4-1.3 1.5-5.2 5.7-5.8 6.2z" fill="#000000" stroke-width="none" opacity="1"></path><path id="SvgjsPath45140" d="M151.8 76.3c-.5-1.9-2.1-1-3 .4-1.9 2.6-3.2 6.6-3.6 10 0 .1.1.2.1.1.1.1.2.1.2-.1 1.2-.5 1.6-.2 1.2.8 0 .3-.1.6-.3.9-.2.5-.6 1-.9 1.5-.5.8-1.2 1.5-1.7 2.3-.2.3 0 .6.2.4 1.4-1 3.9-4.3 3.2-6.6-.3-.8-1-1.1-1.5-.7 1.1-3.6 4-12 5.8-8.8.1.1.3 0 .3-.2z" fill="#000000" stroke-width="none" opacity="1"></path><path id="SvgjsPath45141" d="M148.9 76.8c1 2 1.4 4.4.9 7.1-.3 1.5-2.9 9.5-4.9 8.4-.2-.1-.4.3-.2.5 2 1.8 4.2-4.5 4.9-6.5 1.1-3.4 1.4-7.5-.5-9.7-.1-.1-.2.1-.2.2z" fill="#000000" stroke-width="none" opacity="1"></path></g></g><g id="svga-group-faceshape-wrap"><g id="svga-group-faceshape-single"><path id="SvgjsPath45218" d="M142.4 53.8c-2.3-11.5-15.1-29-42.4-29S63.6 38.3 59.6 48.3c-2.5 6.2-3.2 15.3-3.4 19.8 0 0 1.8 34.8 3.2 41.3 1.4 6.7 26.7 30.6 29.5 33.1 2.8 2.3 9.8-1.4 9.8-1.4s4.7 5.6 10.8.9c6.1-4.7 29-26.9 30.4-30.6s4-43.2 4-43.2c-.1-3.3-.4-9-1.5-14.4z" fill="#ffffff" stroke-width="none" opacity="1"></path><path id="SvgjsPath45219" d="M104.5 145.1c-2.6 0-4.7-1.3-6.1-2.5-2.1 1-7.5 3.2-10.3.9-1.8-1.5-28.3-26.3-29.9-33.7-1.4-6.7-3.1-40.1-3.2-41.5v-.2c.2-4.8.9-13.9 3.4-20.2C65 31.6 78.5 23.7 99.9 23.7c12.3 0 23.2 3.6 31.3 10.5 6.3 5.2 10.9 12.6 12.2 19.5 1.1 5.5 1.3 11.5 1.4 14.5-.3 4-2.6 39.7-4 43.5-1.6 4.2-25.3 26.9-30.8 31.1-1.9 1.7-3.8 2.3-5.5 2.3zm-5.6-5.4.6.7c.4.5 4.2 4.6 9.2.8 6.4-4.9 28.8-26.8 30-30.1 1-2.6 2.9-27.1 3.9-42.8 0-3-.3-8.8-1.4-14.1-1.3-6.5-5.6-13.2-11.5-18.1-7.7-6.5-18-10-29.9-10-20.3 0-33.2 7.5-39.4 22.8-2.4 5.9-3.1 14.7-3.3 19.5.1 1.5 1.8 34.8 3.1 41.1 1.3 6.1 25.5 29.3 29.1 32.3 1.6 1.3 6.1-.2 8.6-1.5l1-.6z" fill="#000000" stroke-width="none" opacity="1"></path></g></g><g id="svga-group-mouth-single-move" transform="matrix(1,0,0,1,0,0)"><g id="svga-group-mouth-single"><path id="SvgjsPath45078" d="M117.6 112.37a.3.3 0 0 1-.04-.08c-.02-.02-.03-.04-.05-.05l-.02-.02c-.01-.01-.03-.02-.04-.03-.01-.01-.03-.02-.04-.03-.17-.13-.41-.16-.59-.02a49.858 49.858 0 0 1-36.79.18.417.417 0 0 0-.37-.07c-.39.05-.58.57-.35.87l.01.01c2.75 3.88 5.17 8.27 8.57 11.62 3.08 3.03 6.65 3.26 10.79 3.13 3.71-.11 7.51-.08 10.24-2.97 3.34-3.54 5.98-7.87 8.61-11.94a.57.57 0 0 0 .07-.6zm-1.87 1.3c-1.18 1.78-2.39 3.53-3.64 5.26-3.6 2.43-8.04 2.66-12.26 2.51-4.95-.18-9.86-.9-14.67-2.1a.569.569 0 0 0-.29 0c-1.28-1.8-2.48-3.66-3.73-5.49a50.934 50.934 0 0 0 34.59-.18zm-5.8 8.18c-.05-.18-.1-.35-.15-.54.27-.1.53-.21.79-.33-.21.3-.42.58-.64.87zm-1.05 1.35c-.23-.45-.4-.93-.5-1.42.08-.02.16-.04.25-.08.11.44.25.88.41 1.3-.05.07-.11.13-.16.2zm-.64.72c-.23-.64-.45-1.29-.68-1.93 0-.01-.01-.01-.01-.01.1-.02.21-.05.3-.07.13.61.35 1.18.65 1.73-.08.09-.17.19-.26.28zm-.68.68c-.29-.81-.51-1.63-.67-2.48l.17-.03c0 .04-.01.09.01.14.26.71.5 1.42.76 2.13l-.27.24zm-.6.49c-.27-.95-.52-1.9-.71-2.86.03-.01.07-.01.1-.02.17.94.43 1.86.77 2.76-.05.05-.1.08-.16.12zm-.59.4c-.25-1.06-.55-2.11-.89-3.15l.23-.03v.01c.21 1.04.48 2.07.78 3.1-.03.01-.08.04-.12.07zm-.69.36-1.14-3.42c.13-.01.27-.02.41-.04.37 1.11.68 2.22.94 3.35-.08.05-.14.09-.21.11zm-.96.36c-.41-1.21-.74-2.45-.99-3.71.09 0 .17-.01.25-.02.4 1.19.79 2.38 1.19 3.58-.14.06-.3.1-.45.15zm-2.7.44c-.35-1.37-.7-2.74-1.05-4.1.09 0 .17.01.26 0h.25c.14 1.38.39 2.74.74 4.08-.07.01-.13.02-.2.02zm-1.11.07c-.28-1.4-.56-2.79-.85-4.2.12 0 .24 0 .36.01.35 1.39.71 2.77 1.06 4.16l-.57.03zm-.66.03c-.28-1.41-.56-2.82-.83-4.23.03 0 .06.01.09 0 .28 1.41.57 2.81.85 4.23a.205.205 0 0 0-.11 0zm-.95.01c-.3-1.42-.57-2.86-.82-4.3.12.01.24.01.36.02.28 1.42.56 2.84.84 4.28-.11-.01-.25 0-.38 0zm-1.36-4.33c.24 1.45.52 2.89.81 4.33-.48-1.42-.84-2.87-1.08-4.35.09.01.18.02.27.02zm4.83 4.15a27.81 27.81 0 0 1-.73-4.02c.11 0 .22 0 .33-.01.26 1.33.52 2.65.77 3.98-.14.02-.25.04-.37.05zm.89-.13-.75-3.91c.09 0 .18 0 .27-.01.25 1.29.6 2.57 1.01 3.81-.18.04-.35.08-.53.11zm5.49-4.91c.04-.02.08-.03.13-.05.08.3.17.6.25.89-.03.04-.06.08-.09.11-.12-.3-.21-.62-.29-.95zm-12.95.81c.25 1.5.58 2.99.95 4.46-.16.01-.31 0-.47.01-.3-1.5-.53-3.01-.69-4.53.07.01.15.01.22.02-.01.01-.01.02-.01.04zm-.16 4.47-1.05-4.63c.15.01.3.03.45.04.16 1.54.39 3.07.7 4.58-.04 0-.07.01-.1.01zm-.84-.03c-.37-1.57-.73-3.14-1.1-4.71.1.01.21.03.31.04.36 1.56.7 3.12 1.06 4.68-.09 0-.18-.01-.27-.01zm-1.01-.08a36.26 36.26 0 0 1-.99-4.74c.11.01.23.03.34.04l1.11 4.74c-.16-.02-.31-.03-.46-.04zm-1.03-.18-.84-4.69c.11.02.22.03.33.05.22 1.6.54 3.17.97 4.73-.16-.03-.31-.06-.46-.09zm-.81-.2c-.4-1.55-.8-3.11-1.2-4.65.21.03.42.06.62.1-.01.04-.02.08 0 .12l.81 4.5c-.08-.03-.15-.06-.23-.07zm-.9-.35c-.49-1.46-.87-2.95-1.17-4.47.1.02.19.04.29.05.39 1.51.77 3.02 1.17 4.54-.09-.03-.19-.08-.29-.12zm-.95-.51c-.44-1.36-.81-2.73-1.11-4.11l.36.06c-.01.04-.02.08-.01.13.26 1.38.62 2.74 1.04 4.08-.09-.05-.2-.1-.28-.16zm-1-.73a48.71 48.71 0 0 1-.96-3.54c.09.02.18.04.27.05.26 1.25.57 2.48.95 3.7-.09-.07-.18-.14-.26-.21zm-.94-.84c-.32-.96-.64-1.93-.98-2.89.12.02.25.05.36.07.23 1.01.49 2 .78 2.98-.05-.05-.1-.11-.16-.16zm-1.57-3.03c0 .01 0 .02.01.02.17.51.34 1.02.51 1.51-.27-.53-.52-1.06-.78-1.6.09.03.18.05.26.07zm-1.2-.29c.09.02.18.05.28.07.11.25.23.49.34.73-.22-.26-.43-.53-.62-.8zm11.91 6.22c-.38-1.47-.7-2.96-.95-4.45l.36.03c.24 1.5.6 2.97 1.08 4.41h-.11c-.12.01-.24 0-.38.01z" fill="#000000" stroke-width="none" opacity="1"></path></g></g><g id="svga-group-eyes-left-move" transform="matrix(1,0,0,1,0,0)"><g id="svga-group-eyes-left"><g id="svga-group-eyesback-left"></g><g id="svga-group-eyesiriswrapper-left"><g id="svga-group-eyesiriscontrol-left" transform="matrix(1,0,0,1,0,0)"><g id="svga-group-eyesiris-left"><path id="SvgjsPath45275" d="M75.2 84.7c-1.5 1.9-1.3 4.5.4 6 1.8 1.7 4.9 2.1 7.1.1 1.1-1.1 1.8-2.7 1.5-4.1-.1-.5-.3-1-.6-1.4-.2-.6-.5-1.1-1-1.5-2.1-1.8-5.6-1.4-7.4.9z" fill="#ffffff" stroke-width="none" opacity="1"></path><path id="SvgjsPath45276" d="M84.4 86.7c-.1-.5-.3-1-.6-1.5-.2-.6-.6-1.1-1.1-1.6-1-.9-2.3-1.4-3.8-1.2-1.6.1-3.1.9-4 2.1-1.6 2-1.4 4.8.4 6.4 1 .9 2.5 1.5 3.9 1.5 1.2 0 2.5-.4 3.5-1.4 1.4-1.2 2.1-2.9 1.7-4.3zm-.6-.1c-.7.1-1.4.2-2 .2 0-.1-.1-.2-.1-.2.4-.1.8-.3 1.2-.5.2-.1.4-.1.6-.3.1.3.2.5.3.8zm-.9-1.8.3.6v.1c-.6.3-1.2.5-1.8.8-.1-.1-.1-.2-.2-.3.7-.3 1.2-.8 1.7-1.2zm-.6-.7c.2.2.3.3.4.5-.6.4-1.2.8-1.6 1.3l-.1-.1c-.1-.1-.2-.1-.3-.2.2-.3.5-.7.7-1.1.1-.2.3-.4.5-.7.2.1.3.2.4.3zm-2.1.1c0-.4.1-.7.1-1.1.5.1.9.3 1.3.5-.2.2-.3.5-.5.7-.2.4-.5.7-.6 1.1-.1-.1-.3-.1-.4-.2.1-.3.1-.7.1-1zM79 83h.4c.2 0 .5 0 .7.1-.1.3-.1.6-.1 1 0 .3-.1.7-.1 1.1-.2 0-.4-.1-.6-.1 0-.3-.1-.7-.2-1 0-.4-.1-.7-.1-1.1zm-4.5 3.9c.7.2 1.5.4 2.2.3 0 .2-.1.5 0 .7-.7-.1-1.5 0-2.2 0v-1zm.1 1.3c.7-.1 1.5-.1 2.2-.1 0 .1.1.2.1.3-.4.1-.7.3-1.1.4-.3.1-.6.2-.9.4-.2-.3-.3-.6-.3-1zm.7 1.7c-.1-.1-.2-.3-.3-.4.3-.1.6-.3.9-.4.3-.1.7-.3 1-.4-.5.4-1.1.8-1.6 1.2zm.5.6-.3-.3c.6-.4 1.1-.8 1.6-1.2.1.1.1.2.2.2-.2.2-.4.5-.6.7-.2.3-.4.5-.6.8-.1-.1-.2-.2-.3-.2zm.5.4c.2-.3.4-.6.7-.8.2-.2.4-.4.6-.7.1.1.2.2.3.2-.2.2-.4.6-.5.8-.2.2-.4.5-.6.7-.2 0-.3-.1-.5-.2zm.8.4c.2-.2.3-.4.5-.6.2-.3.5-.6.6-1 .1 0 .2.1.3.1-.2.6-.3 1.2-.5 1.8-.4-.1-.7-.2-.9-.3zm1.1.4c.3-.5.5-1.2.5-1.8.2 0 .4.1.6.1-.1.6 0 1.2 0 1.8-.4 0-.8 0-1.1-.1zm1.4.1c0-.6 0-1.2-.1-1.8.2 0 .4 0 .6-.1.2.6.3 1.2.5 1.7-.4.1-.7.2-1 .2zm3.2-1.7c-.5-.2-.9-.6-1.3-.9 0 .1-.1.2-.1.3.3.3.7.7 1.1.9l-.2.2c-.2.2-.4.3-.6.4-.1-.2-.3-.5-.4-.7-.1-.2-.2-.3-.3-.5-.1 0-.2.1-.3.1.1.2.2.4.3.5.1.2.3.5.5.8-.3.2-.5.3-.8.4-.2-.6-.4-1.1-.6-1.7.1 0 .1 0 .2-.1-.2-.1-.3-.2-.3-.4-.8.3-1.7 0-2.3-.5-.4-.4-.6-.9-.6-1.4-.2-.2-.4-.4-.5-.6-.4-.1-.8-.1-1.1-.1-.3-.1-.6-.1-.9-.2.1-.4.2-.8.4-1.1.3.2.7.4 1 .5.2.1.4.2.5.3 0-.1 0-.3.1-.4-.2-.1-.3-.2-.5-.2-.3-.2-.6-.3-1-.4.1-.1.2-.2.3-.4.2-.2.4-.4.6-.7.1.2.4.4.6.6.1.2.3.3.4.4.1-.1.2-.1.3-.2l-.1-.1-.6-.6c-.1-.1-.2-.3-.3-.4.3-.2.6-.4.8-.5.1.3.3.6.4.8.1.2.3.5.5.7.2 0 .3.1.4.1l-.6-.9c-.1-.2-.2-.5-.4-.8.4-.2.8-.3 1.2-.3 0 .3.1.7.2 1.1.1.3.1.7.2 1-.2 0-.3.1-.5.1.2.1.3.2.4.4h.4c.5 0 1 .2 1.3.5.2.2.3.4.4.6.1.2.2.4.2.6.1.3 0 .7-.2 1 .2.1.3.2.3.4 0 0 0-.1.1-.1.2.2.6.4.9.5.2.1.5.3.8.4 0 .2-.1.4-.3.6zm.6-.8c-.2 0-.9-.4-1-.5-.2-.1-.3-.2-.5-.2 0 0-.1 0-.2-.1.1-.2.2-.4.2-.6.6.2 1.3.3 2 .3-.2.3-.3.7-.5 1.1zm.5-1.5c-.7-.1-1.3-.2-2-.3v-.4c.7 0 1.4-.1 2-.2v.9zm-3.1.4h.2c.4-1-.2-2.1-1.3-2.4-.2-.1-.4-.1-.6-.1.4.8 0 2-1.2 2h-.3c.1.6.4 1.2 1 1.5.4.2.9.2 1.4.1-.2-.5.1-1.1.8-1.1z" fill="#000000" stroke-width="none" opacity="1"></path></g></g></g><g id="svga-group-eyesfront-left"><path id="SvgjsPath45184" d="M79 72.1c-8.2 0-14.8 6.6-14.8 14.8s6.6 14.8 14.8 14.8 14.8-6.6 14.8-14.8c0-8.1-6.6-14.8-14.8-14.8zM84.4 93c-4.5 1.4-10-.2-12.8-2.1C68.9 89 67 86 67 86c9.1-2.2 13.6-.3 17 1.1s5 4.1 5 4.1-.1.4-4.6 1.8z" fill="#ffffff" stroke-width="none" opacity="1"></path><path id="SvgjsPath45185" d="M90.3 92.1c-2.1-6.9-5.3-10.9-9.6-12-7.4-1.9-15.1 5.6-15.4 5.9-.2.2-.2.5-.1.7s.4.3.6.3c12.7-3.7 19.6 1.4 22.2 4.1-2.2 1.1-13 5.7-19.8-4.2-.2-.3-.5-.3-.8-.1-.3.2-.3.5-.1.8 3.6 5.2 8.2 6.7 12.3 6.7 4.5 0 8.4-1.8 9.2-2.2.3.4.5.6.5.6.1.2.3.3.5.3h.2c.3-.3.4-.6.3-.9zM69.1 85c.4-.3.8-.8.9-.8.4-.4.9-.7 1.3-1.1.4-.2.9-.5 1.3-.7-.5.4-1 .9-1.5 1.3-.4.4-.8.8-1.1 1.2-.3 0-.6 0-.9.1zm1.8-.3.7-.7c.6-.5 1.1-1.1 1.5-1.7.1-.1 0-.2-.1-.2.8-.4 1.7-.7 2.6-.9-.6.4-1.2.9-1.7 1.4-.7.6-1.3 1.2-1.9 1.9-.4.1-.7.1-1.1.2zm3.6-.2c.9-.8 1.9-1.6 2.6-2.6.1-.2-.1-.4-.3-.3-1.2.8-2.2 1.9-3.2 2.9h-.9c.5-.4.9-.9 1.4-1.3.8-.7 1.6-1.3 2.3-2v-.1c.6-.1 1.2-.2 1.8-.2.7 0 1.5.1 2.2.3 3.3.9 5.9 3.7 7.8 8.5-2.2-2.2-6.6-5.2-13.7-5.2z" fill="#000000" stroke-width="none" opacity="1"></path></g></g></g><g id="svga-group-eyes-right-move" transform="matrix(1,0,0,1,0,0)"><g id="svga-group-eyes-right"><g id="svga-group-eyesback-right"></g><g id="svga-group-eyesiriswrapper-right"><g id="svga-group-eyesiriscontrol-right" transform="matrix(1,0,0,1,0,0)"><g id="svga-group-eyesiris-right"><path id="SvgjsPath45277" d="M117.2 84.7c-1.5 1.9-1.3 4.5.4 6 1.8 1.7 4.9 2.1 7.1.1 1.1-1.1 1.8-2.7 1.5-4.1-.1-.5-.3-1-.6-1.4-.2-.6-.5-1.1-1-1.5-2.1-1.8-5.5-1.4-7.4.9z" fill="#ffffff" stroke-width="none" opacity="1"></path><path id="SvgjsPath45278" d="M126.5 86.7c-.1-.5-.3-1-.6-1.5-.2-.6-.6-1.1-1.1-1.6-1-.9-2.3-1.4-3.8-1.2-1.6.1-3.1.9-4 2.1-1.6 2-1.4 4.8.4 6.4 1 .9 2.5 1.5 3.9 1.5 1.2 0 2.5-.4 3.5-1.4 1.4-1.2 2-2.9 1.7-4.3zm-.7-.1c-.7.1-1.4.2-2 .2 0-.1-.1-.2-.1-.2.4-.1.8-.3 1.2-.5.2-.1.4-.1.6-.3.1.3.2.5.3.8zm-.8-1.8.3.6v.1c-.6.3-1.2.5-1.8.8-.1-.1-.1-.2-.2-.3.6-.3 1.1-.8 1.7-1.2zm-.6-.7c.2.2.3.3.4.5-.6.4-1.2.8-1.6 1.3l-.1-.1c-.1-.1-.2-.1-.3-.2.2-.3.5-.7.7-1.1.1-.2.3-.4.5-.7.1.1.2.2.4.3zm-2.1.1c0-.4.1-.7.1-1.1.5.1.9.3 1.3.5-.2.2-.3.5-.5.7-.2.4-.5.7-.6 1.1-.1-.1-.3-.1-.4-.2 0-.3 0-.7.1-1zM121 83h.4c.2 0 .5 0 .7.1-.1.3-.1.7-.1 1.1 0 .3-.1.7-.1 1.1-.2 0-.4-.1-.6-.1 0-.3-.1-.7-.2-1 0-.5 0-.8-.1-1.2zm-4.4 3.9c.7.2 1.5.4 2.2.3 0 .2-.1.5 0 .7-.7-.1-1.5 0-2.2 0-.1-.3-.1-.6 0-1zm0 1.3c.7-.1 1.5-.1 2.2-.1 0 .1.1.2.1.3-.4.1-.7.3-1.1.4-.3.1-.6.2-.9.4-.1-.3-.2-.6-.3-1zm.7 1.7c-.1-.1-.2-.3-.3-.4.3-.1.6-.3.9-.4.3-.1.7-.3 1-.4-.5.4-1.1.8-1.6 1.2zm.5.6-.3-.3c.6-.4 1.1-.8 1.6-1.2.1.1.1.2.2.2-.2.2-.4.5-.6.7-.2.3-.4.5-.6.8-.1-.1-.2-.2-.3-.2zm.5.4c.2-.3.4-.6.7-.8.2-.2.4-.4.6-.7.1.1.2.2.3.2-.2.2-.4.6-.5.8-.2.2-.4.5-.6.7-.1 0-.3-.1-.5-.2zm.8.4c.2-.2.3-.4.5-.6.2-.3.5-.6.6-1 .1 0 .2.1.3.1-.2.6-.3 1.2-.5 1.8l-.9-.3zm1.1.4c.3-.5.5-1.2.5-1.8.2 0 .4.1.6.1-.1.6 0 1.2 0 1.8-.4 0-.7 0-1.1-.1zm1.4.1c0-.6 0-1.2-.1-1.8.2 0 .4 0 .6-.1.2.6.3 1.2.5 1.7-.4.1-.7.2-1 .2zm3.3-1.7c-.5-.2-.9-.6-1.3-.9 0 .1-.1.2-.1.3.3.3.7.7 1.1.9l-.2.2c-.2.2-.4.3-.6.4-.1-.2-.3-.5-.4-.7-.1-.2-.2-.3-.3-.5-.1 0-.2.1-.3.1.1.2.2.4.3.5.1.2.3.5.5.8-.3.2-.5.3-.8.4-.2-.6-.4-1.1-.6-1.7.1 0 .1 0 .2-.1-.2-.1-.3-.2-.3-.4-.8.3-1.7 0-2.3-.5-.4-.4-.6-.9-.6-1.4-.2-.2-.4-.4-.5-.6-.4-.1-.8-.1-1.1-.1-.3-.1-.6-.1-.9-.2.1-.4.2-.8.4-1.1.3.2.7.4 1 .5.2.1.4.2.5.3 0-.1 0-.3.1-.4-.2-.1-.3-.2-.5-.2-.3-.2-.6-.3-1-.4.1-.1.2-.2.3-.4.2-.2.4-.4.6-.7.1.2.4.4.6.6.1.2.3.3.4.4.1-.1.2-.1.3-.2l-.1-.1-.6-.6c-.1-.1-.2-.3-.3-.4.3-.2.6-.4.8-.5.1.3.3.6.4.8.1.2.3.5.5.7.2 0 .3.1.4.1l-.6-.9c-.1-.2-.2-.5-.4-.8.4-.2.8-.3 1.2-.3 0 .3.1.7.2 1.1.1.3.1.7.2 1-.2 0-.3.1-.5.1.2.1.3.2.4.4h.4c.5 0 1 .2 1.3.5.2.2.3.4.4.6.1.2.2.4.2.6.1.3 0 .7-.2 1 .2.1.3.2.3.4 0 0 0-.1.1-.1.2.2.6.4.9.5.2.1.5.3.8.4 0 .2-.2.4-.3.6zm.5-.8c-.2 0-.9-.4-1-.5-.2-.1-.3-.2-.5-.2 0 0-.1 0-.2-.1.1-.2.2-.4.2-.6.6.2 1.3.3 2 .3-.1.3-.3.7-.5 1.1zm.5-1.5c-.7-.1-1.3-.2-2-.3v-.4c.7 0 1.4-.1 2-.2v.9zm-3.1.4h.2c.4-1-.2-2.1-1.3-2.4-.2-.1-.4-.1-.6-.1.4.8 0 2-1.2 2h-.3c.1.6.4 1.2 1 1.5.4.2.9.2 1.4.1-.1-.5.1-1.1.8-1.1z" fill="#000000" stroke-width="none" opacity="1"></path></g></g></g><g id="svga-group-eyesfront-right"><path id="SvgjsPath45186" d="M121 72.1c-8.2 0-14.8 6.6-14.8 14.8s6.6 14.8 14.8 14.8 14.8-6.6 14.8-14.8c0-8.1-6.6-14.8-14.8-14.8zm6.8 18.8c-2.8 1.9-8.3 3.5-12.8 2.1s-4.6-1.7-4.6-1.7 1.6-2.7 5-4.1 7.9-3.3 17-1.1c.1-.1-1.8 2.9-4.6 4.8z" fill="#ffffff" stroke-width="none" opacity="1"></path><path id="SvgjsPath45189" d="M134.2 85.9c-.3-.3-8.1-7.8-15.4-5.9-4.3 1.1-7.5 5.2-9.6 12-.1.3.1.6.3.7h.2c.2 0 .4-.1.5-.3 0 0 .2-.3.5-.6.8.4 4.7 2.2 9.2 2.2 4.1 0 8.7-1.5 12.3-6.7.2-.3.1-.6-.1-.8s-.6-.1-.8.1c-6.8 10-17.6 5.3-19.8 4.2 2.6-2.7 9.5-7.9 22.2-4.1.2.1.5 0 .6-.3.1 0 .1-.3-.1-.5zm-21.6 2.6c-.1.1-.3.2-.4.3.1-.6.2-1.2.2-1.8.1-.1.1-.2.2-.3 0 .6-.1 1.2 0 1.8zm.6-.4v-2.2c.1-.2.2-.3.3-.5-.1.8-.1 1.6.2 2.4-.2.1-.4.2-.5.3zm1-.7c.1-1 0-2 0-2.9.3-.4.7-.7 1-1.1-.1 1.1-.2 2.3.1 3.4-.4.2-.8.4-1.1.6zm1.4-.8c.1-1.2 0-2.4 0-3.6.3-.2.6-.5.9-.7 0 1.1 0 2.2.2 3.2 0 .2.3.1.3 0 .1-1.1-.1-2.1-.2-3.2 0-.1-.1-.1-.1-.1.5-.3 1-.6 1.5-.8 0 1.3 0 2.7.4 4-1.1.4-2.1.8-3 1.2zm3.4-1.3c.1-1.3-.2-2.7-.6-4 .2-.1.4-.1.6-.2.7-.2 1.5-.3 2.2-.3 4.1 0 8.1 2.6 10.3 4.3-5.1-1.1-9.3-.7-12.5.2z" fill="#000000" stroke-width="none" opacity="1"></path></g></g></g><g id="svga-group-facehighlight-single"></g><g id="svga-group-eyebrows-left-move" transform="matrix(1,0,0,1,0,0)"><g id="svga-group-eyebrows-left-rotate" transform="matrix(1,0,0,1,0,0)"><g id="svga-group-eyebrows-left"><path id="SvgjsPath45094" d="M78.79 76.64c4.26.09 11.31.59 11.31-.88s-2.06-8.96-11.45-9.4c-9.4-.44-14.39 8.66-13.51 9.98s6.75.15 13.65.3z" fill="#ffffff" stroke-width="none" opacity="1"></path><path id="SvgjsPath45095" d="M64.71 76.63c.45.67 1.53.86 3.24.86 1 0 2.2-.07 3.62-.14 2.15-.12 4.59-.25 7.21-.2.65.01 1.37.04 2.12.06 5.04.16 8.42.2 9.39-.74.21-.2.32-.45.32-.72 0-1.54-2.08-9.45-11.94-9.91-6.49-.3-11.18 3.81-13.23 7.43-.41.73-1.3 2.51-.73 3.36zm1.08-1.7c.2-.52.52-1.18 1.04-1.94.06-.09.13-.18.2-.29l2.58 3.72c-.37.02-.73.03-1.07.04-.71-.43-1.94-1.1-2.75-1.53zm4.63 1.45-2.95-4.26c.16-.2.35-.42.55-.65l3.01 4.88-.61.03zm-.14-6.96c.5 1.29 2.11 5.22 2.76 6.82-.42.02-.84.04-1.24.07l-3.3-5.35c.5-.5 1.09-1.03 1.78-1.54zm3.49 6.79c-1.08-2.64-2.59-6.34-2.91-7.19.63-.42 1.33-.81 2.1-1.14l2.45 8.27-1.64.06zm1.28-3.68-1.45-4.89c.27-.1.54-.19.83-.27l.62 5.16zm3.41-5.66-.36 5.88-.67-5.88c.33-.01.68-.01 1.03 0zm3.99 9.36 1.71-7.99c.63.32 1.17.69 1.67 1.08l-2.9 6.92c-.17 0-.33 0-.48-.01zm4.95-5.39-3.37 5.42c-.13 0-.25 0-.37-.01l2.72-6.48c.37.36.72.71 1.02 1.07zm1.58 2.61-1.41 1.52 1.09-2.21c.12.24.23.47.32.69zm.61 2.29c-.2.27-1.08.41-2.24.48l1.91-2.05c.22.69.32 1.26.33 1.57zm-4.76.53 3.01-4.85c.15.21.28.41.41.61l-2.08 4.22c-.43.02-.88.02-1.34.02zm-4.34-.1.56-8.98c.91.19 1.73.45 2.46.77l-1.76 8.25c-.29-.01-.57-.02-.81-.03-.15 0-.3 0-.45-.01zm-1.92-.05.57-9.2c.43.03.85.07 1.24.13l-.57 9.1-1.01-.03c-.07 0-.15.01-.23 0zm-2.4.01-1.08-8.95c.52-.12 1.08-.2 1.65-.25l1.04 9.19h-.26c-.45-.01-.9 0-1.35.01zm-10.58-.53c.51.28 1.06.58 1.56.85-.83-.04-1.42-.15-1.58-.39-.04-.07-.03-.23.02-.46z" fill="#000000" stroke-width="none" opacity="1"></path></g></g></g><g id="svga-group-eyebrows-right-move" transform="matrix(1,0,0,1,0,0)"><g id="svga-group-eyebrows-right-rotate" transform="matrix(1,0,0,1,0,0)"><g id="svga-group-eyebrows-right"><path id="SvgjsPath45096" d="M121.21 76.64c-4.26.09-11.31.59-11.31-.88s2.06-8.96 11.45-9.4c9.4-.44 14.39 8.66 13.51 9.98s-6.75.15-13.65.3z" fill="#ffffff" stroke-width="none" opacity="1"></path><path id="SvgjsPath45097" d="M134.56 73.28c-2.05-3.62-6.74-7.73-13.23-7.43-9.87.46-11.94 8.37-11.94 9.91 0 .27.11.51.32.72.97.94 4.35.9 9.39.74.75-.02 1.47-.05 2.12-.06 2.62-.06 5.06.08 7.21.2 1.41.08 2.62.14 3.62.14 1.71 0 2.79-.2 3.24-.86.57-.86-.32-2.64-.73-3.36zm-3.1 3.18c-.34-.01-.7-.02-1.07-.04l2.58-3.72c.08.11.15.2.2.29.52.76.84 1.42 1.04 1.94-.81.43-2.04 1.1-2.75 1.53zm-2.49-.11 3.01-4.88c.21.23.39.45.55.65l-2.95 4.26-.61-.03zm2.52-5.39-3.3 5.35c-.41-.02-.82-.04-1.24-.07.66-1.6 2.27-5.54 2.76-6.82.7.51 1.29 1.04 1.78 1.54zm-6.9 5.19 2.45-8.27c.77.33 1.47.72 2.1 1.14-.32.85-1.83 4.55-2.91 7.19l-1.64-.06zm.98-8.79c.28.08.56.17.83.27l-1.45 4.89.62-5.16zm-3-.49-.67 5.88-.36-5.88c.35-.01.7-.01 1.03 0zm-5.49 9.38-2.9-6.92c.5-.39 1.05-.76 1.67-1.08l1.71 7.99c-.16 0-.32 0-.48.01zm-3.45-6.47 2.72 6.48c-.12 0-.25 0-.37.01l-3.37-5.42c.29-.37.64-.72 1.02-1.07zm-2.29 2.98 1.09 2.21-1.41-1.52c.09-.22.2-.45.32-.69zm-.59 1.41 1.91 2.05c-1.16-.07-2.04-.21-2.24-.48 0-.31.1-.88.33-1.57zm3.08 2.09-2.08-4.22c.13-.2.26-.41.41-.61l3.01 4.85c-.46-.01-.91-.01-1.34-.02zm5.23-.07-.81.03-1.76-8.25c.73-.32 1.55-.58 2.46-.77l.56 8.98c-.15 0-.3 0-.45.01zm2.14-.06-1.01.03-.57-9.1c.39-.06.81-.1 1.24-.13l.57 9.2c-.08 0-.16-.01-.23 0zm1.27-.02h-.26l1.04-9.19c.57.05 1.13.13 1.65.25l-1.08 8.95c-.44 0-.89-.01-1.35-.01zm11.96-.05c-.16.24-.75.35-1.58.39.5-.28 1.05-.58 1.56-.85.05.23.06.39.02.46z" fill="#000000" stroke-width="none" opacity="1"></path></g></g></g><g id="svga-group-beardwrap"><g id="svga-group-beard-single-move" transform="matrix(1,0,0,1,0,0)"><g id="svga-group-beard-single"></g></g></g><g id="svga-group-mustache-single-move" transform="matrix(1,0,0,1,0,0)"><g id="svga-group-mustache-single"></g></g><g id="svga-group-nose-single-move" transform="matrix(1,0,0,1,0,0)"><g id="svga-group-nose-single"><path id="SvgjsPath45314" d="M105.44 100.55s2.43 2.68 3.35 5.44c.92 2.76.84 4.52-1.34 5.1-2.17.59-3.76-.84-3.76-.84s-1.76 2.84-4.1 2.43c-2.34-.42-3.18-2.17-3.18-2.17s-2.76 1.59-4.27.67-1.84-3.85-1-5.6c.84-1.76 3.26-4.85 3.26-4.85s-.75-3.93.17-6.36 1.92-3.76 4.77-4.52c2.84-.75 4.27 1.09 5.1 2.09.84 1 1.92 4.43 1 8.61z" fill="#ffffff" stroke-width="none" opacity="1"></path><path id="SvgjsPath45315" d="M107.82 102.5c-.44-.7-1.56-.06-1.12.65.93 1.49 1.85 3.27 1.93 5.07.11 2.62-2.86 3.29-4.45 1.49-.27-.31-.83-.22-1.02.13-1.47 2.75-4.68 2.97-6.33.24a.66.66 0 0 0-1.02-.13c-1.54 1.46-4.29.98-4.55-1.35-.19-1.68.64-3.51 1.36-4.99.36-.74-.75-1.4-1.12-.65-1.04 2.14-2.53 5.49-.83 7.68 1.36 1.75 3.75 1.83 5.45.69 2.09 2.69 5.76 2.6 7.73-.17 1.71 1.29 4.43 1.27 5.63-.78 1.4-2.36-.4-5.85-1.66-7.88z" fill="#000000" stroke-width="none" opacity="1"></path><path id="SvgjsPath45316" d="M95.91 104.08c-1.08-2.69-1.49-5.59-.98-8.46.47-2.64 1.77-5.03 1.77-7.75 0-1.38-.28-2.76-.22-4.14.05-1.34.47-2.63.57-3.97.17-2.41-.85-4.61-1.87-6.73-.36-.75-1.48-.09-1.12.65.61 1.27 1.24 2.55 1.54 3.94.36 1.64-.03 3.09-.28 4.7-.4 2.64.43 5.25-.19 7.88-.56 2.38-1.53 4.57-1.68 7.04-.15 2.47.3 4.9 1.21 7.19.31.75 1.56.42 1.25-.35z" fill="#000000" stroke-width="none" opacity="1"></path><path id="SvgjsPath45317" d="M103.25 83.61c.04 1.38-.22 2.76-.22 4.14-.01 2.62 1.21 4.93 1.71 7.46.58 2.97.2 5.96-.92 8.75-.31.77.94 1.11 1.25.34.91-2.29 1.37-4.73 1.21-7.19-.16-2.47-1.11-4.66-1.68-7.04-.62-2.62.21-5.24-.19-7.88-.23-1.48-.62-2.9-.34-4.41.27-1.49.95-2.87 1.6-4.22.36-.75-.75-1.4-1.12-.65-.97 2.01-1.98 4.14-1.89 6.43.05 1.43.55 2.82.59 4.27z" fill="#000000" stroke-width="none" opacity="1"></path></g></g><g id="svga-group-hair-front"><path id="SvgjsPath45255" d="M126.1 44.8s-4.2 10.9-22.1 17.7c0 0-1.2-.2 2.3-4 3.5-3.7-9.5 5.6-13.2 6.3-3.7.7 7.4-9.3 7.4-9.3S82.8 67.3 81 66.4c-1.9-.9 7.4-8.4 7.4-8.4S74 68.2 71.9 68.7 80 57.5 80 57.5s-11.2 7.9-13.9 15.8c-2.8 7.9-4.4 7-4.4 3.5s1.9-10 1.9-10-4.2 5.1-3.5 15.6.9 16.3-.7 13.7c-1.6-2.6-4-17.4-4-17.4s1.2 11.9-.7 10.9c-1.9-.9-6-18.6-6-24.4s1.4-15.3 4-19.8c0 0-3.3 6.5-5.6 9.3s2.6-12.3 6.7-17.2 12.6-10.2 12.6-10.2-11.2 5.3-8.8 2.6c2.3-2.8 20.9-18.1 50.4-10.7 0 0-6-3.5-9.3-5.6s10.7.2 14.9 2.8c4.2 2.6 8.1 8.4 8.1 8.4s13.9.7 19.5 3.5-7 .2-11.4.9c0 0 11.2 5.6 15.8 9.5s7.7 10.9 5.6 10.2-6.3-5.8-6.3-5.8 4 7.9 5.6 16.5 2.3 15.8.9 19.8-3.5-12.8-3.5-12.8.5 11.4-1.9 19.5c-2.3 8.1-5.3 11.9-5.8 8.6s2.1-9.5 2.1-14.9S140 68 140 68s.7 8.8-1.2 6.3c-1.9-2.6-4-8.4-6.3-13-2.2-4.7-5.7-4.9-6.4-16.5z" fill="#ffffff" stroke-width="none" opacity="1"></path><path id="SvgjsPath45256" d="M151.5 59.4c-.8-4.3-2.2-8.4-3.4-11.4 1 .9 2 1.6 2.8 1.9.9.3 1.5-.1 1.8-.6 1.1-2-2.8-8.3-6.4-11.3-3.1-2.6-8.8-5.9-12.5-7.8 1.1.1 2.4.2 3.5.2 4.5.4 6 .5 6.3-.8.3-1.1-1-1.8-1.9-2.2-5.2-2.6-16.9-3.4-19.4-3.6-1-1.4-4.4-6-8.2-8.3-2.7-1.6-15.4-5.1-16.7-3.1-.2.2-.6 1.1.8 2 1.1.7 2.6 1.7 4.1 2.5C73.2 12.2 57 29 56.8 29.2c-.8.9-.6 1.6-.3 2 .3.3.6.7 2.5.3-2.1 1.7-4.3 3.6-5.9 5.4-3.4 4-8.2 16.4-7.5 18.4.1.4.5.7.9.8.7.1 1.2-.5 1.4-.7.3-.4.6-.8 1-1.3-.8 4-1.1 8.2-1.1 11.1 0 5.1 4 24 6.6 25.3.5.2 1 .2 1.4-.1.3-.2.5-.5.7-1.1.7 3.2 1.5 6.2 2.2 7.3.5.7.9 1.1 1.5 1.1.1 0 .3 0 .4-.1 1.3-.4 1.6-1.9.7-15.3-.3-1.1-.3-2.2-.3-3.2.3.8.7 1.2 1.4 1.3 1.1.2 2.5-.5 4.7-6.7.8-2.3 2.5-4.7 4.3-6.9-1 1.6-.8 2-.6 2.3.2.3.7.7 1.3.5 1-.2 4.4-2.3 7.9-4.7-.2.4-.3.8-.3 1.1.1.5.3.9.8 1.1 1.2.6 5.3-1.3 12.4-5.7-2 2.4-1.7 3.1-1.5 3.5.2.3.6.9 1.8.7 2-.4 5.9-2.7 9.4-4.8.2-.1.5-.3.7-.4-.6 1-.6 1.6-.5 2 .2.5.6.8.9.9h.5c12.5-4.7 18.5-11.4 21-15.3.8 6.1 2.5 8.4 4.3 10.5.7 1 1.4 1.8 2.1 3.1.9 1.8 1.7 3.7 2.5 5.6 1.3 3.1 2.6 5.9 3.8 7.6.7 1 1.5.9 1.8.8.2-.1.6-.2.9-1 .3 1.7.6 3.5.6 5.2 0 2.6-.6 5.5-1.2 8-.6 2.8-1.1 5.2-.9 7 .2 1.7 1.1 2 1.6 2 2.9.2 5.4-8 6.1-10.5.8-3 1.3-6.3 1.6-9.4.9 3.9 1.7 4 2.2 4 .4 0 1.1-.1 1.5-1.3 1.6-3.6 1.3-10-.6-20.2zm-.6 18.2c-.6-2.4-1.4-7-1.9-11.1-.1-.5-.5-.9-1.1-.9-.5 0-.9.5-.9 1 0 .1.4 11.3-1.8 19.2-1.4 5-3 7.9-3.9 8.8-.2-1.4.3-3.8.9-6.3.6-2.6 1.2-5.6 1.2-8.4 0-5.5-2.3-11.9-2.4-12.2-.1-.4-.5-.7-.9-.7h-.2c-.5.1-.8.6-.8 1.1.1 1.6.2 3.5.1 4.7-.9-1.6-2-3.9-3-6.4-.8-1.9-1.7-3.8-2.6-5.6-.7-1.4-1.5-2.4-2.3-3.4-1.9-2.4-3.7-4.7-4.1-12.7 0-.5-.4-.9-.8-.9-.5-.1-.9.2-1.1.6 0 .1-3.9 9.7-19.4 16.3.3-.4.7-.9 1.3-1.5.5-.5 1.3-1.4.6-2.2-.7-.9-1.4-.5-6 2.2-2.5 1.5-5.7 3.4-7.7 4.2 1.4-1.7 4.4-4.7 7.2-7.2.4-.4.4-.9.1-1.4-.3-.4-.9-.5-1.3-.2-7 4.7-14.8 9.4-17.7 10.6 1.1-1.5 4.1-4.2 6.8-6.4.4-.3.5-1 .2-1.4s-.9-.5-1.4-.2c-5.1 3.6-10.8 7.5-13.9 9.3 1.6-2.1 4.3-5.5 6.9-8.3.3-.4.3-1 0-1.3-.3-.4-.9-.4-1.3-.1-.7.3-11.7 8.1-14.5 16.2-1.1 3.2-1.9 4.6-2.4 5.1-.1-.3-.1-.7-.1-1.3 0-3.3 1.8-9.7 1.8-9.7.1-.5-.1-.9-.5-1.2-.4-.2-.9-.1-1.2.3-.2.2-4.4 5.5-3.7 16.3.2 3.3.6 8.7.5 11.6-1.1-3.3-2.4-10.7-3.2-15.5-.1-.5-.6-.9-1.1-.8s-.9.6-.9 1.1c.3 3.3.5 7.2.3 9.1-1.7-3.8-5-17.4-5-22.6 0-5.6 1.2-13.7 3.3-18.2.3-.6.5-1.1.6-1.1.2-.5.1-1.1-.4-1.3-.5-.3-1.1-.1-1.3.4l-.6 1.2c-.6 1.2-1.7 3.3-2.9 5.1 1.3-4 3.9-10.3 6.3-13 4-4.7 12.2-10 12.3-10 .4-.3.6-.9.3-1.3-.3-.5-.8-.6-1.3-.4-2.1 1-4.5 2-6.2 2.7 5.6-4.9 23.1-15.2 48-8.9.5.1 1-.1 1.2-.6s0-1-.4-1.2c-.1 0-4.2-2.4-7.4-4.4 3.4.4 9.5 1.8 12 3.3 3.9 2.4 7.8 8 7.8 8.1.2.3.5.4.8.4.1 0 11.5.6 17.6 2.7-.6 0-1.2-.1-1.8-.1-2.8-.2-5.9-.5-7.8-.2-.4.1-.8.4-.8.8s.2.9.5 1c.1.1 11.1 5.6 15.6 9.4 3.1 2.6 5.1 6.3 5.7 8.1-1.5-1-3.7-3.5-5-5-.3-.4-.9-.5-1.3-.2s-.6.8-.4 1.3c0 .1 3.9 7.9 5.5 16.2 1.5 8 1.9 13.8 1.3 17.4zm-30.7-37.4c-3.5 4.5-7.9 8-13.1 10.4-.7.3-.1 1.4.6 1.1 5.3-2.4 9.8-6 13.4-10.6.5-.7-.4-1.6-.9-.9zm-5.8-2.3c-4.5 4.5-9.7 7.9-15.5 10.3-.7.3-.4 1.5.3 1.2 6.1-2.5 11.4-6 16.1-10.6.5-.6-.3-1.5-.9-.9zm-14.6 3.2c-6.2 4.2-12.7 8-19.4 11.3-.7.4-.1 1.4.6 1.1 6.8-3.3 13.2-7 19.4-11.3.7-.5.1-1.6-.6-1.1zm-20.6 7.6c-6.1 4-11.3 9-15.5 15-.5.7.6 1.3 1.1.6 4-5.8 9.1-10.7 15-14.5.7-.5.1-1.6-.6-1.1zM64 55.2c-2.5 4-4.6 8.1-6.4 12.5-.3.7.9 1.1 1.2.3 1.7-4.3 3.8-8.3 6.2-12.2.5-.7-.6-1.3-1-.6zm-9.1 7c-1 4.5-1.3 9.1-.9 13.7.1.8 1.3.8 1.3 0-.4-4.5-.1-9 .9-13.4.1-.7-1.1-1-1.3-.3zm50.6-24.7c-.7.4-.1 1.5.6 1.1 3.6-2.1 6.6-5 8.8-8.4.4-.7-.6-1.3-1.1-.6-2.1 3.2-4.9 5.8-8.3 7.9zM86 44.4c6.1-2.8 11.4-6.6 16-11.5.6-.6-.3-1.5-.9-.9-4.5 4.8-9.8 8.6-15.8 11.3-.6.3 0 1.4.7 1.1zm-5.6-6.3c-5.1 3.2-9.9 6.7-14.5 10.7-.6.5.3 1.4.9.9 4.5-3.9 9.2-7.3 14.2-10.5.7-.4.1-1.5-.6-1.1zm-11.2-3c.7-.4.1-1.5-.6-1.1-6.7 4.2-11.4 10.4-13.7 18-.2.8 1 1.1 1.2.3 2.1-7.2 6.7-13.2 13.1-17.2zm3.6-6.5c4-2.6 8.4-4.4 13.1-5.4.8-.2.5-1.4-.3-1.2-4.8 1-9.3 2.9-13.4 5.5-.7.4-.1 1.5.6 1.1zm10.7 2.6c3-1.7 6.3-2.8 9.7-3.3.8-.1.5-1.3-.3-1.2-3.6.5-6.9 1.7-10 3.5-.7.3-.1 1.4.6 1zm16.9-6.7c3.7.1 7.2.8 10.6 2 .8.3 1.1-.9.3-1.2-3.6-1.3-7.2-1.9-11-2.1-.7 0-.7 1.3.1 1.3zm24.8 7.6c-.5 2.8-1.3 5.5-2.4 8.1-.3.7.9 1.1 1.2.3 1.1-2.6 1.9-5.3 2.4-8.1.1-.8-1.1-1.1-1.2-.3zm4.3 4.6c.1-.8-1.2-.8-1.3 0-.3 3.7.1 7.2 1.1 10.8.2.8 1.4.4 1.2-.3-1-3.5-1.3-7-1-10.5zm4.4 17.2c-.3-.7-1.5-.4-1.2.3 1 2.5 2.4 4.9 4.1 7 .5.6 1.4-.3.9-.9-1.6-1.9-2.9-4-3.8-6.4zm2.1-4.6c-1.9-2.6-3-5.5-3.5-8.7-.1-.8-1.3-.5-1.2.3.5 3.3 1.7 6.3 3.6 9 .5.7 1.6.1 1.1-.6zm3.5 5.1c-.4-.7-1.5-.1-1.1.6 1.6 2.5 2.9 5 4.1 7.7.3.7 1.4.1 1.1-.6-1.2-2.7-2.6-5.3-4.1-7.7zm4.4 13.6c.1 2.1.3 4.1.4 6.2 0 .8 1.3.8 1.3 0-.1-2.1-.3-4.1-.4-6.2-.1-.8-1.3-.8-1.3 0zm-2.1-21.4c-1-1.7-1.9-3.5-2.9-5.2-.4-.7-1.5-.1-1.1.6 1 1.7 1.9 3.5 2.9 5.2.4.7 1.5.1 1.1-.6zm2.4 9.7c1.1 2.4 1.8 4.8 2.3 7.4.1.8 1.3.5 1.2-.3-.4-2.7-1.2-5.2-2.4-7.7-.4-.7-1.5-.1-1.1.6z" fill="#000000" stroke-width="none" opacity="1"></path></g><g id="svga-group-glasses-single-move" transform="matrix(1,0,0,1,0,0)"><g id="svga-group-glasses-single"></g></g></g></g></g><rect id="svga-credit-rect" width="200" height="15" x="0" y="185" fill="#ecf0f1" opacity="0.5" style="display: none;"></rect><text id="svga-credit-text" font-family="Avenir Next, Roboto, Helvetica, Arial, sans-serif" font-size="10px" text-anchor="start" font-weight="400" size="10px" anchor="start" weight="400" fill="#333333" x="33.3125" y="182.609375" style="display: none;"><tspan id="SvgjsTspan45062" dy="13" x="33.3125">Created on AvatarMaker.com</tspan></text></g><defs id="SvgjsDefs45009"></defs></svg>