<svg xmlns="http://www.w3.org/2000/svg" width="150" height="150" viewBox="0 0 150 150" fill="none">
<mask id="mask0_2507_396" style="mask-type:alpha" maskUnits="userSpaceOnUse" x="0" y="0" width="150" height="150">
<g clip-path="url(#clip0_2507_396)">
<path d="M0 18.75C0 13.7772 1.97544 9.00806 5.49175 5.49175C9.00806 1.97544 13.7772 0 18.75 0L131.25 0C136.223 0 140.992 1.97544 144.508 5.49175C148.025 9.00806 150 13.7772 150 18.75V93.75C150 98.7228 148.025 103.492 144.508 107.008C140.992 110.525 136.223 112.5 131.25 112.5H41.3813C38.895 112.501 36.5109 113.489 34.7531 115.247L8.00625 141.994C7.35122 142.65 6.5161 143.098 5.60659 143.28C4.69707 143.462 3.75405 143.37 2.89687 143.015C2.03969 142.661 1.30689 142.06 0.791224 141.289C0.275555 140.519 0.000197014 139.612 0 138.684L0 18.75ZM32.8125 28.125C31.5693 28.125 30.377 28.6189 29.4979 29.4979C28.6189 30.377 28.125 31.5693 28.125 32.8125C28.125 34.0557 28.6189 35.248 29.4979 36.1271C30.377 37.0061 31.5693 37.5 32.8125 37.5H117.188C118.431 37.5 119.623 37.0061 120.502 36.1271C121.381 35.248 121.875 34.0557 121.875 32.8125C121.875 31.5693 121.381 30.377 120.502 29.4979C119.623 28.6189 118.431 28.125 117.188 28.125H32.8125ZM32.8125 51.5625C31.5693 51.5625 30.377 52.0564 29.4979 52.9354C28.6189 53.8145 28.125 55.0068 28.125 56.25C28.125 57.4932 28.6189 58.6855 29.4979 59.5646C30.377 60.4436 31.5693 60.9375 32.8125 60.9375H117.188C118.431 60.9375 119.623 60.4436 120.502 59.5646C121.381 58.6855 121.875 57.4932 121.875 56.25C121.875 55.0068 121.381 53.8145 120.502 52.9354C119.623 52.0564 118.431 51.5625 117.188 51.5625H32.8125ZM32.8125 75C31.5693 75 30.377 75.4939 29.4979 76.3729C28.6189 77.252 28.125 78.4443 28.125 79.6875C28.125 80.9307 28.6189 82.123 29.4979 83.0021C30.377 83.8811 31.5693 84.375 32.8125 84.375H79.6875C80.9307 84.375 82.123 83.8811 83.0021 83.0021C83.8811 82.123 84.375 80.9307 84.375 79.6875C84.375 78.4443 83.8811 77.252 83.0021 76.3729C82.123 75.4939 80.9307 75 79.6875 75H32.8125Z" fill="black"/>
</g>
</mask>
<g mask="url(#mask0_2507_396)">
<rect width="150" height="150" fill="url(#paint0_linear_2507_396)"/>
</g>
<defs>
<linearGradient id="paint0_linear_2507_396" x1="37" y1="38.5" x2="117" y2="127.5" gradientUnits="userSpaceOnUse">
<stop stop-color="#FF9214"/>
<stop offset="1" stop-color="#FF0045"/>
</linearGradient>
<clipPath id="clip0_2507_396">
<rect width="150" height="150" fill="white"/>
</clipPath>
</defs>
</svg>