<svg xmlns="http://www.w3.org/2000/svg" width="150" height="150" viewBox="0 0 150 150" fill="none">
<mask id="mask0_2505_399" style="mask-type:alpha" maskUnits="userSpaceOnUse" x="0" y="0" width="150" height="150">
<path fill-rule="evenodd" clip-rule="evenodd" d="M79.5938 102.375C181.988 31.7062 105.75 -22.3781 75.0001 9.24375C44.2407 -22.3781 -31.9968 31.7062 70.4063 102.375L68.2126 106.762C68.0747 107.038 67.9925 107.339 67.9706 107.646C67.9488 107.954 67.9877 108.262 68.0852 108.555C68.2821 109.146 68.7056 109.634 69.2626 109.912C69.8195 110.191 70.4643 110.237 71.0551 110.04C71.6458 109.843 72.1341 109.419 72.4126 108.863L72.7876 108.112C72.872 109.706 73.0126 111.066 73.2657 112.331C73.9032 115.556 75.2157 118.162 77.4657 122.662L77.5876 122.925C79.5751 126.881 79.2938 130.894 78.0563 134.606C76.7907 138.375 74.6251 141.647 73.0501 144.009C72.7045 144.527 72.5785 145.16 72.6998 145.77C72.8211 146.38 73.1798 146.917 73.697 147.263C74.2141 147.608 74.8474 147.734 75.4575 147.613C76.0676 147.491 76.6045 147.133 76.9501 146.616L76.9876 146.55C78.5438 144.225 81.0282 140.494 82.5001 136.097C84.0001 131.606 84.4876 126.244 81.7876 120.825C79.3688 115.997 78.3657 113.962 77.8595 111.412C77.6885 110.517 77.5727 109.612 77.5126 108.703L77.5876 108.863C77.8661 109.419 78.3544 109.843 78.9451 110.04C79.5359 110.237 80.1806 110.191 80.7376 109.912C81.2945 109.634 81.7181 109.146 81.915 108.555C82.1119 107.964 82.0661 107.319 81.7876 106.762L79.5845 102.375H79.5938ZM63.0563 11.8969C52.1157 6.17813 36.8063 10.5656 30.6751 22.5375C28.4532 26.8781 27.3001 32.6625 28.7813 39.8813C29.297 42.4125 33.1595 41.7281 33.722 39.2156C36.3938 27.4406 44.7563 16.1344 61.7438 15.5156C63.9376 15.4406 65.0063 12.9094 63.0563 11.8969V11.8969Z" fill="black"/>
</mask>
<g mask="url(#mask0_2505_399)">
<rect x="-1" y="-2" width="150" height="150" fill="url(#paint0_linear_2505_399)"/>
</g>
<defs>
<linearGradient id="paint0_linear_2505_399" x1="27" y1="15" x2="97" y2="93.5" gradientUnits="userSpaceOnUse">
<stop stop-color="#FF9214"/>
<stop offset="1" stop-color="#FF0045"/>
</linearGradient>
</defs>
</svg>