<svg xmlns="http://www.w3.org/2000/svg" width="150" height="150" viewBox="0 0 150 150" fill="none">
<mask id="mask0_2504_395" style="mask-type:alpha" maskUnits="userSpaceOnUse" x="0" y="0" width="150" height="150">
<g clip-path="url(#clip0_2504_395)">
<path d="M74.9998 0C73.3498 0 71.7186 0.05625 70.0967 0.159375L70.6967 9.51562C73.5624 9.33042 76.4372 9.33042 79.3029 9.51562L79.9029 0.159375C78.2707 0.0535428 76.6355 0.000390112 74.9998 0V0ZM60.3748 1.425C57.1311 2.07187 53.9623 2.925 50.8873 3.95625L53.8967 12.8437C56.5873 11.925 59.3529 11.1844 62.1842 10.6219L60.3748 1.43437V1.425ZM99.1123 3.96562C96.012 2.91453 92.8457 2.06895 89.6342 1.43437L87.8154 10.6219C90.6467 11.1844 93.4123 11.9344 96.1029 12.8437L99.1123 3.96562V3.96562ZM116.672 12.6375C113.951 10.8164 111.113 9.17534 108.178 7.725L104.025 16.125C106.603 17.4 109.087 18.8437 111.459 20.4281L116.672 12.6375V12.6375ZM41.8123 7.725C38.8686 9.17812 36.0373 10.8187 33.3279 12.6375L38.5404 20.4187C40.9232 18.8283 43.4065 17.3941 45.9748 16.125L41.8123 7.725ZM25.5467 18.6094C23.0904 20.7656 20.7654 23.0906 18.6092 25.5469L25.6592 31.7344C27.5529 29.5781 29.5779 27.5531 31.7342 25.6594L25.5467 18.6094ZM131.39 25.5469C129.231 23.0865 126.913 20.7691 124.453 18.6094L118.265 25.6594C120.422 27.5531 122.456 29.5781 124.34 31.7344L131.39 25.5469ZM142.275 41.8125C140.825 38.88 139.184 36.0458 137.362 33.3281L129.581 38.5406C131.165 40.9125 132.6 43.3969 133.875 45.975L142.275 41.8219V41.8125ZM12.6373 33.3281C10.8186 36.0375 9.16855 38.8687 7.7248 41.8219L16.1248 45.975C17.3998 43.3969 18.8436 40.9125 20.4279 38.5406L12.6373 33.3281V33.3281ZM3.96543 50.8875C2.91431 53.9878 2.06873 57.1541 1.43418 60.3656L10.6217 62.1844C11.1842 59.3531 11.9342 56.5875 12.8436 53.8969L3.96543 50.8875V50.8875ZM148.575 60.375C147.941 57.1602 147.095 53.9909 146.044 50.8875L137.156 53.8969C138.075 56.5875 138.815 59.3531 139.378 62.1844L148.565 60.3656L148.575 60.375ZM0.15918 70.0969C-0.0517578 73.3622 -0.0517578 76.6378 0.15918 79.9031L9.51543 79.3031C9.33022 76.4374 9.33022 73.5626 9.51543 70.6969L0.15918 70.0969V70.0969ZM150 75C149.999 73.3643 149.946 71.7291 149.84 70.0969L140.484 70.6969C140.67 73.5626 140.67 76.4374 140.484 79.3031L149.84 79.9031C149.946 78.2709 149.999 76.6357 150 75V75ZM1.4248 89.625C2.07168 92.8687 2.9248 96.0375 3.95605 99.1125L12.8436 96.1031C11.9215 93.3925 11.1793 90.624 10.6217 87.8156L1.43418 89.6344L1.4248 89.625ZM146.034 99.1125C147.084 96.0375 147.928 92.8687 148.565 89.6344L139.378 87.8156C138.815 90.6469 138.065 93.4125 137.156 96.1031L146.034 99.1125V99.1125ZM7.7248 108.187C9.17551 111.12 10.8165 113.954 12.6373 116.672L20.4186 111.459C18.8265 109.078 17.3922 106.594 16.1248 104.025L7.7248 108.178V108.187ZM137.362 116.672C139.181 113.962 140.831 111.131 142.275 108.178L133.875 104.025C132.6 106.603 131.156 109.087 129.572 111.459L137.362 116.672V116.672ZM18.6092 124.453C20.7654 126.909 23.0904 129.234 25.5467 131.391L31.7342 124.341C29.5795 122.45 27.5502 120.42 25.6592 118.266L18.6092 124.453V124.453ZM124.453 131.391C126.909 129.234 129.234 126.909 131.39 124.453L124.34 118.266C122.456 120.422 120.422 122.456 118.265 124.341L124.453 131.391ZM108.187 142.275C111.131 140.822 113.962 139.181 116.672 137.362L111.459 129.581C109.076 131.172 106.593 132.606 104.025 133.875L108.178 142.275H108.187ZM33.3279 137.362C36.0373 139.181 38.8686 140.831 41.8217 142.275L45.9748 133.875C43.4053 132.605 40.9219 131.167 38.5404 129.572L33.3279 137.362V137.362ZM50.8873 146.034C53.9623 147.084 57.1311 147.928 60.3654 148.566L62.1842 139.378C59.3759 138.82 56.6074 138.078 53.8967 137.156L50.8873 146.034V146.034ZM89.6248 148.575C92.8395 147.941 96.0089 147.095 99.1123 146.044L96.1029 137.156C93.3922 138.078 90.6237 138.82 87.8154 139.378L89.6342 148.566L89.6248 148.575ZM70.0967 149.841C73.362 150.052 76.6376 150.052 79.9029 149.841L79.3029 140.484C76.4372 140.67 73.5624 140.67 70.6967 140.484L70.0967 149.841V149.841ZM79.6873 42.1875C79.6873 40.9443 79.1934 39.752 78.3144 38.8729C77.4353 37.9939 76.243 37.5 74.9998 37.5C73.7566 37.5 72.5643 37.9939 71.6852 38.8729C70.8062 39.752 70.3123 40.9443 70.3123 42.1875V70.3125H42.1873C40.9441 70.3125 39.7518 70.8064 38.8727 71.6854C37.9937 72.5645 37.4998 73.7568 37.4998 75C37.4998 76.2432 37.9937 77.4355 38.8727 78.3146C39.7518 79.1936 40.9441 79.6875 42.1873 79.6875H70.3123V107.812C70.3123 109.056 70.8062 110.248 71.6852 111.127C72.5643 112.006 73.7566 112.5 74.9998 112.5C76.243 112.5 77.4353 112.006 78.3144 111.127C79.1934 110.248 79.6873 109.056 79.6873 107.812V79.6875H107.812C109.056 79.6875 110.248 79.1936 111.127 78.3146C112.006 77.4355 112.5 76.2432 112.5 75C112.5 73.7568 112.006 72.5645 111.127 71.6854C110.248 70.8064 109.056 70.3125 107.812 70.3125H79.6873V42.1875Z" fill="black"/>
</g>
</mask>
<g mask="url(#mask0_2504_395)">
<rect width="150" height="150" fill="url(#paint0_linear_2504_395)"/>
</g>
<defs>
<linearGradient id="paint0_linear_2504_395" x1="19.5" y1="14" x2="138.5" y2="144.5" gradientUnits="userSpaceOnUse">
<stop offset="0.00169143" stop-color="#FF9214"/>
<stop offset="0.955942" stop-color="#FF0045"/>
</linearGradient>
<clipPath id="clip0_2504_395">
<rect width="150" height="150" fill="white"/>
</clipPath>
</defs>
</svg>