<svg xmlns="http://www.w3.org/2000/svg" width="150" height="150" viewBox="0 0 150 150" fill="none">
<mask id="mask0_2507_392" style="mask-type:alpha" maskUnits="userSpaceOnUse" x="0" y="0" width="150" height="150">
<path d="M0 18.75C0 13.7772 1.97544 9.00806 5.49175 5.49175C9.00806 1.97544 13.7772 0 18.75 0L131.25 0C136.223 0 140.992 1.97544 144.508 5.49175C148.025 9.00806 150 13.7772 150 18.75V93.75C150 98.7228 148.025 103.492 144.508 107.008C140.992 110.525 136.223 112.5 131.25 112.5H107.812C106.357 112.5 104.922 112.839 103.62 113.49C102.318 114.141 101.186 115.086 100.312 116.25L82.5 139.997C81.6267 141.161 80.4944 142.106 79.1926 142.757C77.8909 143.408 76.4554 143.747 75 143.747C73.5446 143.747 72.1091 143.408 70.8074 142.757C69.5056 142.106 68.3733 141.161 67.5 139.997L49.6875 116.25C48.8142 115.086 47.6819 114.141 46.3801 113.49C45.0784 112.839 43.6429 112.5 42.1875 112.5H18.75C13.7772 112.5 9.00806 110.525 5.49175 107.008C1.97544 103.492 0 98.7228 0 93.75V18.75ZM67.4437 44.6812C66.8258 43.759 66.1125 42.9042 65.3156 42.1312C64.0627 40.841 62.5689 39.809 60.9188 39.0938L60.8437 39.0562C58.6235 38.0254 56.2041 37.4941 53.7563 37.5C44.775 37.5 37.5 44.4937 37.5 53.1281C37.5 61.7531 44.775 68.7469 53.7563 68.7469C56.9719 68.7469 59.9625 67.8562 62.4844 66.3094C61.2 69.9562 58.8281 73.8469 54.8906 77.7469C54.5197 78.1089 54.2269 78.543 54.0301 79.0225C53.8333 79.5019 53.7368 80.0166 53.7465 80.5348C53.7561 81.053 53.8718 81.5637 54.0863 82.0355C54.3008 82.5073 54.6096 82.9302 54.9938 83.2781C56.6156 84.7781 59.1844 84.7313 60.75 83.1844C73.2563 70.725 73.5937 57.3281 69.5719 48.4406C68.9811 47.1269 68.2686 45.8715 67.4437 44.6906V44.6812ZM103.125 66.3094C101.85 69.9562 99.4687 73.8469 95.5312 77.7469C95.1609 78.1095 94.8688 78.5441 94.6728 79.0239C94.4768 79.5038 94.3812 80.0186 94.3917 80.5368C94.4023 81.055 94.5188 81.5656 94.7341 82.037C94.9494 82.5085 95.259 82.9308 95.6437 83.2781C97.2562 84.7781 99.825 84.7313 101.391 83.1844C113.897 70.725 114.234 57.3281 110.222 48.4406C109.628 47.1267 108.912 45.8712 108.084 44.6906C107.467 43.765 106.754 42.9071 105.956 42.1312C104.703 40.8408 103.21 39.8088 101.559 39.0938L101.484 39.0562C99.267 38.0267 96.851 37.4955 94.4062 37.5C85.4344 37.5 78.15 44.4937 78.15 53.1281C78.15 61.7531 85.4344 68.7469 94.4062 68.7469C97.6219 68.7469 100.613 67.8562 103.134 66.3094H103.125Z" fill="black"/>
</mask>
<g mask="url(#mask0_2507_392)">
<rect width="150" height="150" fill="url(#paint0_linear_2507_392)"/>
</g>
<defs>
<linearGradient id="paint0_linear_2507_392" x1="33" y1="41.5" x2="131.5" y2="129" gradientUnits="userSpaceOnUse">
<stop stop-color="#FF9214"/>
<stop offset="1" stop-color="#FF0045"/>
</linearGradient>
</defs>
</svg>