<svg xmlns="http://www.w3.org/2000/svg" width="150" height="150" viewBox="0 0 150 150" fill="none">
<mask id="mask0_2509_390" style="mask-type:alpha" maskUnits="userSpaceOnUse" x="0" y="0" width="150" height="150">
<path d="M46.875 28.125C46.875 20.6658 49.8382 13.5121 55.1126 8.23762C60.3871 2.96316 67.5408 0 75 0C82.4592 0 89.6129 2.96316 94.8874 8.23762C100.162 13.5121 103.125 20.6658 103.125 28.125V75C103.125 82.4592 100.162 89.6129 94.8874 94.8874C89.6129 100.162 82.4592 103.125 75 103.125C67.5408 103.125 60.3871 100.162 55.1126 94.8874C49.8382 89.6129 46.875 82.4592 46.875 75V28.125Z" fill="black"/>
<path d="M32.8125 60.9375C34.0557 60.9375 35.248 61.4314 36.1271 62.3104C37.0061 63.1895 37.5 64.3818 37.5 65.625V75C37.5 84.9456 41.4509 94.4839 48.4835 101.517C55.5161 108.549 65.0544 112.5 75 112.5C84.9456 112.5 94.4839 108.549 101.517 101.517C108.549 94.4839 112.5 84.9456 112.5 75V65.625C112.5 64.3818 112.994 63.1895 113.873 62.3104C114.752 61.4314 115.944 60.9375 117.188 60.9375C118.431 60.9375 119.623 61.4314 120.502 62.3104C121.381 63.1895 121.875 64.3818 121.875 65.625V75C121.875 86.6206 117.559 97.827 109.764 106.445C101.968 115.063 91.2498 120.479 79.6875 121.641V140.625H107.812C109.056 140.625 110.248 141.119 111.127 141.998C112.006 142.877 112.5 144.069 112.5 145.312C112.5 146.556 112.006 147.748 111.127 148.627C110.248 149.506 109.056 150 107.812 150H42.1875C40.9443 150 39.752 149.506 38.8729 148.627C37.9939 147.748 37.5 146.556 37.5 145.312C37.5 144.069 37.9939 142.877 38.8729 141.998C39.752 141.119 40.9443 140.625 42.1875 140.625H70.3125V121.641C58.7502 120.479 48.0316 115.063 40.2364 106.445C32.4411 97.827 28.1249 86.6206 28.125 75V65.625C28.125 64.3818 28.6189 63.1895 29.4979 62.3104C30.377 61.4314 31.5693 60.9375 32.8125 60.9375Z" fill="black"/>
</mask>
<g mask="url(#mask0_2509_390)">
<rect width="150" height="150" fill="url(#paint0_linear_2509_390)"/>
</g>
<defs>
<linearGradient id="paint0_linear_2509_390" x1="33.5" y1="44" x2="115" y2="128.5" gradientUnits="userSpaceOnUse">
<stop stop-color="#FF9214"/>
<stop offset="1" stop-color="#FF0045"/>
</linearGradient>
</defs>
</svg>