<svg xmlns="http://www.w3.org/2000/svg" width="150" height="150" viewBox="0 0 150 150" fill="none">
<mask id="mask0_2508_400" style="mask-type:alpha" maskUnits="userSpaceOnUse" x="0" y="0" width="150" height="150">
<g clip-path="url(#clip0_2508_400)">
<path d="M18.75 56.25C18.7497 46.9614 21.0497 37.8172 25.4445 29.6341C29.8394 21.4509 36.1923 14.4834 43.936 9.35379C51.6798 4.22415 60.5733 1.09201 69.8225 0.237034C79.0717 -0.617938 88.3887 0.830873 96.9415 4.4541C105.494 8.07733 113.017 13.7622 118.837 21.0011C124.658 28.24 128.595 36.8076 130.297 45.9389C132 55.0702 131.414 64.481 128.593 73.3309C125.772 82.1808 120.804 90.1945 114.131 96.6563C112.228 98.4938 110.766 100.406 109.884 102.459L102.741 119.044C102.378 119.884 101.778 120.6 101.013 121.103C100.248 121.607 99.3529 121.875 98.4375 121.875H51.5625C50.6456 121.877 49.7483 121.609 48.9818 121.106C48.2152 120.603 47.6131 119.886 47.25 119.044L40.1157 102.45C39.0941 100.259 37.6511 98.29 35.8688 96.6563C30.4465 91.4172 26.1359 85.1389 23.1947 78.1964C20.2534 71.254 18.7417 63.7898 18.75 56.25V56.25ZM46.875 135.938C46.875 134.694 47.3689 133.502 48.248 132.623C49.127 131.744 50.3193 131.25 51.5625 131.25H98.4375C99.6807 131.25 100.873 131.744 101.752 132.623C102.631 133.502 103.125 134.694 103.125 135.938C103.125 137.181 102.631 138.373 101.752 139.252C100.873 140.131 99.6807 140.625 98.4375 140.625L96.3375 144.816C95.5595 146.373 94.3634 147.682 92.8831 148.598C91.4028 149.514 89.6969 149.999 87.9563 150H62.0438C60.3032 149.999 58.5973 149.514 57.117 148.598C55.6367 147.682 54.4406 146.373 53.6625 144.816L51.5625 140.625C50.3193 140.625 49.127 140.131 48.248 139.252C47.3689 138.373 46.875 137.181 46.875 135.938Z" fill="black"/>
</g>
</mask>
<g mask="url(#mask0_2508_400)">
<rect width="150" height="150" fill="url(#paint0_linear_2508_400)"/>
</g>
<defs>
<linearGradient id="paint0_linear_2508_400" x1="26" y1="32" x2="112" y2="126" gradientUnits="userSpaceOnUse">
<stop stop-color="#FF9214"/>
<stop offset="0.922713" stop-color="#FF0045"/>
</linearGradient>
<clipPath id="clip0_2508_400">
<rect width="150" height="150" fill="white"/>
</clipPath>
</defs>
</svg>