<svg xmlns="http://www.w3.org/2000/svg" xmlns:xlink="http://www.w3.org/1999/xlink" width="1080" zoomAndPan="magnify" viewBox="0 0 810 809.999993" height="1080" preserveAspectRatio="xMidYMid meet" version="1.0"><defs><clipPath id="id1"><path d="M 68 124 L 723 124 L 723 753.839844 L 68 753.839844 Z M 68 124 " clip-rule="nonzero"/></clipPath></defs><g clip-path="url(#id1)"><path fill="#ffffff" d="M 74.300781 506.90625 C 84.085938 534.617188 106.515625 560.304688 134.996094 569.40625 C 138.492188 570.519531 142.054688 571.375 145.660156 571.960938 C 153.9375 628.449219 191.136719 672.726562 238.972656 703.652344 C 282.347656 731.710938 343.972656 753.804688 395.914062 753.804688 C 447.847656 753.804688 509.46875 731.699219 552.851562 703.652344 C 581.246094 685.289062 606.820312 661.65625 624.316406 632.476562 C 635.65625 613.570312 643.066406 593.160156 646.191406 571.648438 C 667.207031 567.710938 685.792969 554.679688 699.121094 537.574219 C 706.28125 528.375 712.070312 517.902344 715.945312 506.90625 C 728.617188 470.992188 722.65625 426.136719 690.851562 401.976562 C 687.464844 399.402344 683.859375 397.160156 680.078125 395.253906 C 681.605469 391.203125 682.78125 387.003906 683.570312 382.75 C 697.996094 372.304688 706.535156 354.972656 706.535156 336.816406 C 706.535156 319.078125 698.359375 302.097656 684.5 291.589844 C 681.953125 264.191406 664.003906 238.878906 636.691406 232.277344 C 633.253906 229.792969 629.792969 227.347656 626.292969 224.941406 C 619.746094 218.664062 613.003906 212.59375 606.097656 206.714844 C 605.492188 205.929688 604.886719 205.148438 604.273438 204.378906 L 603.027344 202.835938 L 600.523438 199.792969 L 599.207031 198.25 C 593.894531 192.085938 588.230469 186.242188 582.261719 180.773438 L 581.566406 180.144531 C 580.621094 179.304688 579.679688 178.449219 578.734375 177.632812 L 577.757812 176.78125 C 576.921875 176.078125 576.109375 175.378906 575.3125 174.71875 L 574.1875 173.785156 L 573.675781 173.363281 C 573.007812 172.824219 572.304688 172.257812 571.574219 171.667969 L 570.132812 170.535156 L 568.417969 169.214844 L 566.03125 167.417969 L 564.25 166.109375 C 563.363281 165.484375 562.492188 164.863281 561.652344 164.269531 L 560.65625 163.578125 C 527.125 140.417969 487.648438 128.054688 446.933594 128.054688 L 445.304688 128.054688 C 415.671875 123.292969 385.625 123.394531 355.984375 128.054688 L 344.886719 128.054688 C 315.769531 128.054688 287.058594 134.402344 260.65625 146.683594 L 259.535156 147.214844 C 258.511719 147.707031 257.484375 148.199219 256.503906 148.679688 L 255.355469 149.246094 C 254.367188 149.742188 253.355469 150.265625 252.390625 150.761719 L 250.753906 151.625 L 250.183594 151.9375 L 248.261719 152.984375 C 247.414062 153.453125 246.585938 153.917969 245.785156 154.375 L 244.410156 155.167969 C 243.464844 155.707031 242.527344 156.265625 241.621094 156.8125 L 240.234375 157.65625 C 239.230469 158.273438 238.234375 158.90625 237.265625 159.519531 L 236.230469 160.1875 C 235.144531 160.882812 234.070312 161.585938 233.027344 162.289062 L 232.398438 162.722656 C 231.214844 163.53125 230.019531 164.359375 228.851562 165.175781 L 228.503906 165.433594 C 227.308594 166.28125 226.105469 167.167969 224.90625 168.0625 C 213.085938 176.917969 202.222656 187.070312 192.601562 198.253906 L 191.339844 199.738281 L 189.449219 202.011719 L 188.335938 203.386719 L 187.320312 204.664062 C 187.132812 204.898438 186.9375 205.136719 186.75 205.390625 C 181.390625 209.597656 176.132812 213.953125 171.007812 218.453125 C 165.074219 222.953125 159.253906 227.621094 153.691406 232.578125 C 127.058594 239.617188 109.601562 264.613281 107.089844 291.589844 C 93.234375 302.097656 85.058594 319.078125 85.058594 336.816406 C 85.058594 354.984375 93.597656 372.304688 108.027344 382.75 C 108.785156 386.808594 109.886719 390.8125 111.316406 394.695312 C 107.117188 396.703125 103.125 399.148438 99.40625 401.976562 C 67.597656 426.136719 61.628906 470.992188 74.300781 506.90625 " fill-opacity="1" fill-rule="evenodd"/></g><path fill="#f7d3b3" d="M 624.679688 548.136719 L 624.679688 329.121094 C 624.679688 231.3125 544.691406 151.28125 446.933594 151.28125 L 344.886719 151.28125 C 247.125 151.28125 167.136719 231.3125 167.136719 329.121094 L 167.136719 548.136719 C 167.136719 669.769531 319.375 730.585938 395.914062 730.585938 C 472.441406 730.585938 624.679688 669.769531 624.679688 548.136719 " fill-opacity="1" fill-rule="evenodd"/><path fill="#f7d3b3" d="M 547.441406 182.675781 C 502.273438 164.382812 460.171875 154.84375 421.714844 151.28125 L 349.976562 151.28125 C 320.066406 154.121094 293.410156 160.265625 270.453125 167.738281 C 259.195312 172.972656 248.574219 179.347656 238.730469 186.71875 C 304.738281 157.503906 420.417969 130.871094 566.609375 197.929688 C 560.582031 192.410156 554.179688 187.324219 547.441406 182.675781 " fill-opacity="1" fill-rule="evenodd"/><path fill="#f7d3b3" d="M 581.582031 213.367188 C 412.90625 130.890625 282.335938 171.921875 217.90625 205.011719 C 213.523438 209.496094 209.367188 214.210938 205.472656 219.132812 C 262.550781 185.726562 403.660156 128.003906 591.015625 225.320312 C 588.035156 221.203125 584.902344 217.199219 581.582031 213.367188 " fill-opacity="1" fill-rule="evenodd"/><path fill="#eabd94" d="M 309.28125 606.171875 C 307.789062 607.949219 307.164062 610.167969 307.34375 612.300781 C 307.539062 614.4375 308.550781 616.511719 310.335938 618.011719 L 310.363281 618.039062 C 311.976562 619.402344 380.308594 676.59375 480.289062 618.847656 C 482.300781 617.675781 483.652344 615.820312 484.21875 613.746094 C 484.769531 611.6875 484.535156 609.398438 483.382812 607.382812 C 482.222656 605.371094 480.355469 604.011719 478.289062 603.453125 C 476.234375 602.898438 473.949219 603.140625 471.929688 604.289062 C 382.796875 655.78125 323.464844 607.082031 321.207031 605.191406 L 321.121094 605.117188 C 319.351562 603.628906 317.132812 603.019531 314.992188 603.199219 L 314.992188 603.1875 C 312.847656 603.378906 310.769531 604.390625 309.28125 606.171875 " fill-opacity="1" fill-rule="nonzero"/><path fill="#f7d3b3" d="M 694.066406 499.1875 C 707.050781 462.375 693.726562 424.105469 664.300781 413.714844 C 647.546875 407.804688 629.195312 412.1875 614.097656 423.851562 L 614.097656 543.175781 C 614.097656 544.03125 614.03125 544.855469 614.019531 545.707031 C 615.078125 546.175781 616.15625 546.597656 617.261719 546.988281 C 646.683594 557.382812 681.078125 535.980469 694.066406 499.1875 " fill-opacity="1" fill-rule="evenodd"/><path fill="#f7d3b3" d="M 125.953125 413.714844 C 96.527344 424.105469 83.199219 462.375 96.1875 499.1875 C 109.171875 535.980469 143.570312 557.382812 172.988281 546.988281 C 174.640625 546.40625 176.234375 545.730469 177.777344 544.992188 C 177.773438 544.375 177.722656 543.789062 177.722656 543.175781 L 177.722656 425.109375 C 162.335938 412.5 143.28125 407.589844 125.953125 413.714844 " fill-opacity="1" fill-rule="evenodd"/><path fill="#e3be99" d="M 167.136719 532.65625 L 167.136719 441.089844 C 158.429688 436.753906 148.851562 435.703125 139.929688 438.847656 C 119.53125 446.046875 110.28125 472.589844 119.285156 498.113281 C 127.503906 521.40625 148.09375 535.8125 167.136719 532.65625 " fill-opacity="1" fill-rule="evenodd"/><path fill="#e3be99" d="M 673.503906 498.113281 C 682.511719 472.589844 673.265625 446.046875 652.867188 438.847656 C 643.605469 435.570312 633.644531 436.839844 624.679688 441.59375 L 624.679688 532.476562 C 643.992188 536.289062 665.140625 521.804688 673.503906 498.113281 " fill-opacity="1" fill-rule="evenodd"/><path fill="#ffffff" d="M 317.511719 383.066406 C 317.511719 362.277344 303.816406 345.421875 286.933594 345.421875 C 270.054688 345.421875 256.359375 362.277344 256.359375 383.066406 C 256.359375 403.863281 270.054688 420.714844 286.933594 420.714844 C 303.816406 420.714844 317.511719 403.863281 317.511719 383.066406 " fill-opacity="1" fill-rule="evenodd"/><path fill="#d3d2d2" d="M 239.632812 338.542969 C 239.730469 338.476562 274.878906 312.59375 317.222656 334.125 C 323.570312 337.324219 331.300781 334.765625 334.5 328.414062 C 337.695312 322.082031 335.148438 314.332031 328.800781 311.144531 C 272.378906 282.464844 224.664062 317.597656 224.519531 317.679688 C 218.769531 321.859375 217.476562 329.914062 221.65625 335.667969 C 225.824219 341.429688 233.875 342.726562 239.632812 338.542969 " fill-opacity="1" fill-rule="nonzero"/><path fill="#d3d2d2" d="M 470.6875 334.125 C 513.023438 312.59375 548.175781 338.476562 548.269531 338.542969 C 554.035156 342.726562 562.085938 341.429688 566.253906 335.667969 C 570.425781 329.914062 569.140625 321.859375 563.382812 317.679688 C 563.25 317.597656 515.53125 282.464844 459.101562 311.144531 C 452.761719 314.332031 450.214844 322.082031 453.40625 328.414062 C 456.601562 334.765625 464.347656 337.324219 470.6875 334.125 " fill-opacity="1" fill-rule="nonzero"/><path fill="#eabd94" d="M 431.839844 492.171875 C 431.839844 478.96875 402.9375 435.304688 396.339844 422.320312 C 389.804688 435.179688 360.503906 479.34375 360.503906 492.171875 C 360.503906 511.867188 376.476562 527.859375 396.171875 527.859375 C 415.867188 527.859375 431.839844 511.867188 431.839844 492.171875 " fill-opacity="1" fill-rule="evenodd"/><path fill="#d3d2d2" d="M 580.765625 232.277344 C 400.578125 128.835938 262.339844 192.273438 201.664062 233.195312 C 258.285156 199.9375 396.804688 142.691406 580.765625 232.277344 " fill-opacity="1" fill-rule="evenodd"/><path fill="#d3d2d2" d="M 578.957031 222.46875 C 444.554688 114.125 319.066406 155.601562 245.359375 200.304688 C 318.730469 165.226562 436.738281 140 578.957031 222.46875 " fill-opacity="1" fill-rule="evenodd"/><path fill="#d3d2d2" d="M 580.765625 232.277344 C 396.804688 142.691406 258.285156 199.9375 201.664062 233.195312 C 262.339844 192.273438 400.578125 128.835938 580.765625 232.277344 Z M 578.957031 222.46875 C 436.738281 140 318.730469 165.226562 245.359375 200.304688 C 319.066406 155.601562 444.554688 114.125 578.957031 222.46875 Z M 108.269531 336.828125 C 108.269531 351.683594 117.449219 364.214844 130.003906 368.144531 L 129.984375 369.414062 C 129.984375 393.445312 146.503906 413.023438 167.136719 413.835938 L 167.136719 329.121094 C 167.136719 303.457031 172.652344 279.019531 182.550781 256.925781 C 181.550781 256.46875 180.53125 256.070312 179.496094 255.703125 C 198.375 240.925781 368.550781 117.082031 611.675781 255.855469 C 610.851562 256.15625 610.042969 256.480469 609.234375 256.835938 C 619.148438 278.953125 624.679688 303.421875 624.679688 329.121094 L 624.679688 413.824219 C 645.210938 412.867188 661.609375 393.355469 661.609375 369.414062 L 661.589844 368.144531 C 674.140625 364.214844 683.324219 351.683594 683.324219 336.828125 C 683.324219 321.792969 673.914062 309.125 661.121094 305.367188 C 661.441406 303.066406 661.609375 300.714844 661.609375 298.3125 C 661.609375 275.386719 646.574219 256.523438 627.273438 254.109375 C 622.027344 250.300781 616.792969 246.570312 611.601562 243.023438 C 418.367188 56.292969 233.683594 194.160156 185.6875 236.453125 C 174.003906 245.273438 166.804688 251.972656 164.601562 254.085938 C 145.167969 256.335938 129.984375 275.277344 129.984375 298.3125 C 129.984375 300.714844 130.160156 303.066406 130.472656 305.367188 C 117.683594 309.125 108.269531 321.792969 108.269531 336.828125 " fill-opacity="1" fill-rule="evenodd"/><path fill="#d3d2d2" d="M 319.609375 606.71875 C 332.078125 606.71875 342.195312 600.019531 342.195312 591.773438 L 342.195312 591.621094 C 345.296875 597.433594 353.660156 601.59375 363.492188 601.59375 C 372.820312 601.59375 380.824219 597.851562 384.269531 592.523438 C 388.089844 597.195312 395.566406 600.367188 404.164062 600.367188 C 413.609375 600.367188 421.703125 596.539062 425.074219 591.085938 C 427.785156 597.328125 436.480469 601.890625 446.789062 601.890625 C 450.191406 601.890625 453.417969 601.398438 456.308594 600.507812 C 460.382812 603.140625 465.953125 604.75 472.085938 604.75 C 484.5625 604.75 494.671875 598.066406 494.671875 589.816406 C 494.671875 589.613281 494.667969 589.390625 494.65625 589.199219 C 493.734375 561.683594 455.867188 539.144531 407.289062 536.058594 C 405.585938 540.695312 401.136719 544.007812 395.914062 544.007812 C 390.6875 544.007812 386.238281 540.695312 384.527344 536.058594 C 335.574219 539.15625 297.503906 562.023438 297.140625 589.816406 L 297.207031 589.816406 C 297.082031 590.449219 297.015625 591.109375 297.015625 591.773438 C 297.015625 600.019531 307.128906 606.71875 319.609375 606.71875 " fill-opacity="1" fill-rule="evenodd"/><path fill="#ffffff" d="M 535.4375 383.066406 C 535.4375 362.277344 521.75 345.421875 504.871094 345.421875 C 487.984375 345.421875 474.292969 362.277344 474.292969 383.066406 C 474.292969 403.863281 487.984375 420.714844 504.871094 420.714844 C 521.75 420.714844 535.4375 403.863281 535.4375 383.066406 " fill-opacity="1" fill-rule="evenodd"/><path fill="#231f20" d="M 525.78125 383.066406 C 525.78125 368.84375 516.417969 357.3125 504.871094 357.3125 C 493.316406 357.3125 483.953125 368.84375 483.953125 383.066406 C 483.953125 397.296875 493.316406 408.828125 504.871094 408.828125 C 516.417969 408.828125 525.78125 397.296875 525.78125 383.066406 " fill-opacity="1" fill-rule="evenodd"/><path fill="#ffffff" d="M 507.832031 375.292969 C 507.832031 369.695312 504.15625 365.183594 499.617188 365.183594 C 495.082031 365.183594 491.40625 369.695312 491.40625 375.292969 C 491.40625 380.871094 495.082031 385.410156 499.617188 385.410156 C 504.15625 385.410156 507.832031 380.871094 507.832031 375.292969 " fill-opacity="1" fill-rule="evenodd"/><path fill="#231f20" d="M 307.851562 383.066406 C 307.851562 368.84375 298.480469 357.3125 286.933594 357.3125 C 275.382812 357.3125 266.015625 368.84375 266.015625 383.066406 C 266.015625 397.296875 275.382812 408.828125 286.933594 408.828125 C 298.480469 408.828125 307.851562 397.296875 307.851562 383.066406 " fill-opacity="1" fill-rule="evenodd"/><path fill="#ffffff" d="M 289.90625 375.292969 C 289.90625 369.695312 286.222656 365.183594 281.679688 365.183594 C 277.152344 365.183594 273.46875 369.695312 273.46875 375.292969 C 273.46875 380.871094 277.152344 385.410156 281.679688 385.410156 C 286.222656 385.410156 289.90625 380.871094 289.90625 375.292969 " fill-opacity="1" fill-rule="evenodd"/><path fill="#d6ece7" d="M 339.78125 483.191406 C 341.449219 483.191406 342.972656 482.492188 344.082031 481.386719 C 345.183594 480.273438 345.871094 478.753906 345.871094 477.09375 L 345.871094 430.808594 C 345.871094 429.128906 345.183594 427.605469 344.082031 426.496094 C 342.972656 425.402344 341.449219 424.707031 339.78125 424.707031 L 229.242188 424.707031 C 227.574219 424.707031 226.054688 425.402344 224.941406 426.496094 C 223.835938 427.605469 223.152344 429.128906 223.152344 430.808594 L 223.152344 477.09375 C 223.152344 478.753906 223.835938 480.273438 224.941406 481.386719 C 226.054688 482.492188 227.574219 483.191406 229.242188 483.191406 L 339.78125 483.191406 " fill-opacity="1" fill-rule="evenodd"/><path fill="#ffffff" d="M 250.449219 424.707031 L 234.785156 483.191406 L 247.691406 483.191406 L 263.347656 424.707031 L 250.449219 424.707031 " fill-opacity="1" fill-rule="evenodd"/><path fill="#ffffff" d="M 280.941406 424.707031 L 265.289062 483.191406 L 278.191406 483.191406 L 293.847656 424.707031 L 280.941406 424.707031 " fill-opacity="1" fill-rule="evenodd"/><path fill="#734d2c" d="M 223.152344 477.09375 L 223.152344 430.808594 C 223.152344 429.128906 223.835938 427.605469 224.941406 426.496094 C 226.054688 425.402344 227.574219 424.707031 229.242188 424.707031 L 339.78125 424.707031 C 341.449219 424.707031 342.972656 425.402344 344.082031 426.496094 C 345.183594 427.605469 345.871094 429.128906 345.871094 430.808594 L 345.871094 477.09375 C 345.871094 478.753906 345.183594 480.273438 344.082031 481.386719 C 342.972656 482.492188 341.449219 483.191406 339.78125 483.191406 L 229.242188 483.191406 C 227.574219 483.191406 226.054688 482.492188 224.941406 481.386719 C 223.835938 480.273438 223.152344 478.753906 223.152344 477.09375 Z M 339.78125 496.085938 C 345.007812 496.085938 349.761719 493.945312 353.199219 490.511719 C 356.632812 487.0625 358.769531 482.316406 358.769531 477.09375 L 358.769531 430.808594 C 358.769531 425.578125 356.632812 420.816406 353.199219 417.378906 C 349.761719 413.945312 345.007812 411.804688 339.78125 411.804688 L 229.242188 411.804688 C 224.015625 411.804688 219.261719 413.945312 215.824219 417.378906 C 212.390625 420.816406 210.253906 425.578125 210.253906 430.808594 L 210.253906 477.09375 C 210.253906 482.316406 212.390625 487.0625 215.824219 490.511719 C 219.261719 493.945312 224.015625 496.085938 229.242188 496.085938 L 339.78125 496.085938 " fill-opacity="1" fill-rule="nonzero"/><path fill="#d6ece7" d="M 562.570312 483.191406 C 564.25 483.191406 565.769531 482.492188 566.878906 481.386719 C 567.984375 480.273438 568.671875 478.753906 568.671875 477.09375 L 568.671875 430.808594 C 568.671875 429.128906 567.984375 427.605469 566.878906 426.496094 C 565.769531 425.402344 564.25 424.707031 562.570312 424.707031 L 452.042969 424.707031 C 450.371094 424.707031 448.84375 425.402344 447.738281 426.496094 C 446.632812 427.605469 445.941406 429.128906 445.941406 430.808594 L 445.941406 477.09375 C 445.941406 478.753906 446.632812 480.273438 447.738281 481.386719 C 448.84375 482.492188 450.371094 483.191406 452.042969 483.191406 L 562.570312 483.191406 " fill-opacity="1" fill-rule="evenodd"/><path fill="#ffffff" d="M 473.238281 424.707031 L 457.582031 483.191406 L 470.488281 483.191406 L 486.148438 424.707031 L 473.238281 424.707031 " fill-opacity="1" fill-rule="evenodd"/><path fill="#ffffff" d="M 503.742188 424.707031 L 488.082031 483.191406 L 500.988281 483.191406 L 516.648438 424.707031 L 503.742188 424.707031 " fill-opacity="1" fill-rule="evenodd"/><path fill="#734d2c" d="M 445.941406 477.09375 L 445.941406 430.808594 C 445.941406 429.128906 446.632812 427.605469 447.738281 426.496094 C 448.84375 425.402344 450.371094 424.707031 452.042969 424.707031 L 562.570312 424.707031 C 564.25 424.707031 565.769531 425.402344 566.878906 426.496094 C 567.984375 427.605469 568.671875 429.128906 568.671875 430.808594 L 568.671875 477.09375 C 568.671875 478.753906 567.984375 480.273438 566.878906 481.386719 C 565.769531 482.492188 564.25 483.191406 562.570312 483.191406 L 452.042969 483.191406 C 450.371094 483.191406 448.84375 482.492188 447.738281 481.386719 C 446.632812 480.273438 445.941406 478.753906 445.941406 477.09375 Z M 562.570312 496.085938 C 567.804688 496.085938 572.550781 493.945312 575.988281 490.511719 C 579.425781 487.0625 581.566406 482.316406 581.566406 477.09375 L 581.566406 430.808594 C 581.566406 425.578125 579.425781 420.816406 575.988281 417.378906 C 572.550781 413.945312 567.804688 411.804688 562.570312 411.804688 L 452.042969 411.804688 C 446.8125 411.804688 442.0625 413.945312 438.625 417.378906 C 435.1875 420.816406 433.046875 425.578125 433.046875 430.808594 L 433.046875 477.09375 C 433.046875 482.316406 435.1875 487.0625 438.625 490.511719 C 442.0625 493.945312 446.8125 496.085938 452.042969 496.085938 L 562.570312 496.085938 " fill-opacity="1" fill-rule="nonzero"/><path fill="#734d2c" d="M 395.914062 438.234375 C 406.183594 438.234375 415.476562 442.472656 422.195312 449.308594 C 428.9375 456.171875 433.125 465.683594 433.125 476.199219 L 446.015625 476.199219 C 446.015625 462.195312 440.414062 449.503906 431.359375 440.289062 C 422.28125 431.058594 409.746094 425.335938 395.914062 425.335938 C 382.074219 425.335938 369.542969 431.058594 360.457031 440.289062 C 351.40625 449.503906 345.808594 462.195312 345.808594 476.199219 L 358.695312 476.199219 C 358.695312 465.683594 362.878906 456.171875 369.625 449.308594 C 376.34375 442.472656 385.640625 438.234375 395.914062 438.234375 " fill-opacity="1" fill-rule="nonzero"/><path fill="#e3be99" d="M 320.226562 262.113281 C 320.4375 262.035156 392.957031 237.546875 471.628906 262.113281 C 472.925781 262.527344 474.28125 261.675781 474.640625 260.214844 C 475 258.753906 474.238281 257.230469 472.933594 256.816406 C 392.898438 231.832031 319.0625 256.773438 318.851562 256.835938 C 317.554688 257.265625 316.816406 258.789062 317.191406 260.25 C 317.578125 261.699219 318.9375 262.546875 320.226562 262.113281 " fill-opacity="1" fill-rule="nonzero"/><path fill="#e3be99" d="M 320.226562 288.367188 C 320.4375 288.300781 392.957031 263.816406 471.628906 288.386719 C 472.925781 288.78125 474.28125 287.929688 474.640625 286.460938 C 475 285 474.238281 283.496094 472.933594 283.09375 C 392.898438 258.097656 319.0625 283.027344 318.851562 283.09375 C 317.554688 283.523438 316.816406 285.046875 317.191406 286.503906 C 317.578125 287.964844 318.9375 288.792969 320.226562 288.367188 " fill-opacity="1" fill-rule="nonzero"/><path fill="#e3be99" d="M 322.929688 539.527344 C 325.027344 538.765625 326.1875 536.25 325.507812 533.882812 C 324.835938 531.519531 322.589844 530.226562 320.492188 530.984375 C 320.269531 531.070312 241.554688 558.496094 265.246094 659.597656 C 265.8125 661.992188 267.992188 663.414062 270.125 662.785156 C 272.261719 662.160156 273.539062 659.707031 272.976562 657.308594 C 251.21875 564.5 322.726562 539.59375 322.929688 539.527344 " fill-opacity="1" fill-rule="nonzero"/><path fill="#e3be99" d="M 521.695312 662.785156 C 523.828125 663.414062 526.007812 661.992188 526.574219 659.597656 C 550.273438 558.496094 471.550781 531.070312 471.335938 530.984375 C 469.226562 530.226562 466.984375 531.519531 466.304688 533.882812 C 465.640625 536.25 466.792969 538.765625 468.890625 539.527344 C 469.09375 539.59375 540.605469 564.5 518.839844 657.308594 C 518.28125 659.707031 519.554688 662.160156 521.695312 662.785156 " fill-opacity="1" fill-rule="nonzero"/></svg>