<svg width="397" height="490" viewBox="0 0 397 490" fill="none" xmlns="http://www.w3.org/2000/svg">
<path d="M160.805 372.88C151.798 433.959 0 490 0 490V9.5087L394.703 1C394.703 1 414.074 133.355 340.321 183.687C253.779 242.747 133.322 131.133 107.008 219.223C91.9614 269.596 176.008 269.775 160.805 372.88Z" fill="#7350EC"/>
<path d="M160.805 372.88C151.798 433.959 0 490 0 490V9.5087L394.703 1C394.703 1 414.074 133.355 340.321 183.687C253.779 242.747 133.322 131.133 107.008 219.223C91.9614 269.596 176.008 269.775 160.805 372.88Z" fill="#7350EC"/>
<path d="M147.033 320.322C138.798 371.783 0 419 0 419V14.1689L360.899 7C360.899 7 378.611 118.514 311.175 160.92C232.045 210.681 121.904 116.642 97.8438 190.861C84.0856 233.301 160.934 233.452 147.033 320.322Z" fill="#7350EC"/>
<path d="M147.033 320.322C138.798 371.783 0 419 0 419V14.1689L360.899 7C360.899 7 378.611 118.514 311.175 160.92C232.045 210.681 121.904 116.642 97.8438 190.861C84.0856 233.301 160.934 233.452 147.033 320.322Z" fill="#7E5BEF"/>
<path d="M80.0223 353.561C43.0497 390.835 0 419 0 419V8.27329L361 1C361 1 149.042 56.2937 180.55 71.0049C265.486 110.66 35.5099 125.284 54.0151 234.857C61.5498 279.472 163.046 269.859 80.0223 353.561Z" fill="#7350EC"/>
<path d="M80.0223 353.561C43.0497 390.835 0 419 0 419V8.27329L361 1C361 1 149.042 56.2937 180.55 71.0049C265.486 110.66 35.5099 125.284 54.0151 234.857C61.5498 279.472 163.046 269.859 80.0223 353.561Z" fill="#8D6CF4"/>
<path d="M80.0223 356.561C43.0497 393.835 0 422 0 422V0.5L359.5 4C359.5 4 196.5 94 101 62.5C-1.23911 28.7772 113.5 115 17.5 190.5C-18.0654 218.471 142.5 293.573 80.0223 356.561Z" fill="#7350EC"/>
<path d="M80.0223 356.561C43.0497 393.835 0 422 0 422V0.5L359.5 4C359.5 4 196.5 94 101 62.5C-1.23911 28.7772 113.5 115 17.5 190.5C-18.0654 218.471 142.5 293.573 80.0223 356.561Z" fill="#9979F7"/>
</svg>
