<svg width="480" height="600" viewBox="0 0 480 600" fill="none" xmlns="http://www.w3.org/2000/svg">
<path d="M0 469.688L11.3778 470.928C22.8444 472.324 45.6 474.804 68.4444 459.612C91.2889 444.421 114.044 411.249 136.889 400.243C159.733 389.082 182.489 399.933 205.511 438.686C228.444 477.439 251.556 544.094 274.489 576.182C297.511 608.115 320.267 605.634 343.111 582.383C365.956 559.131 388.711 515.107 411.556 503.016C434.4 490.925 457.156 510.457 468.622 520.377L480 530.143V0H468.622C457.156 0 434.4 0 411.556 0C388.711 0 365.956 0 343.111 0C320.267 0 297.511 0 274.489 0C251.556 0 228.444 0 205.511 0C182.489 0 159.733 0 136.889 0C114.044 0 91.2889 0 68.4444 0C45.6 0 22.8444 0 11.3778 0H0V469.688Z" fill="#B293FE"/>
<path d="M0 376.681L11.3778 387.067C22.8444 397.297 45.6 418.069 68.4444 405.668C91.2889 393.267 114.044 347.693 136.889 334.827C159.733 321.961 182.489 341.493 205.511 372.495C228.444 403.498 251.556 445.971 274.489 467.828C297.511 489.84 320.267 491.39 343.111 466.123C365.956 440.701 388.711 388.617 411.556 387.532C434.4 386.446 457.156 436.671 468.622 461.628L480 486.74V0H468.622C457.156 0 434.4 0 411.556 0C388.711 0 365.956 0 343.111 0C320.267 0 297.511 0 274.489 0C251.556 0 228.444 0 205.511 0C182.489 0 159.733 0 136.889 0C114.044 0 91.2889 0 68.4444 0C45.6 0 22.8444 0 11.3778 0H0V376.681Z" fill="#A382FA"/>
<path d="M0 274.372L11.3778 291.424C22.8444 308.475 45.6 342.578 68.4444 352.964C91.2889 363.195 114.044 349.864 136.889 338.703C159.733 327.542 182.489 318.861 205.511 321.186C228.444 323.511 251.556 336.842 274.489 341.803C297.511 346.763 320.267 343.043 343.111 321.961C365.956 300.725 388.711 261.971 411.556 266.312C434.4 270.807 457.156 318.241 468.622 342.113L480 365.83V0H468.622C457.156 0 434.4 0 411.556 0C388.711 0 365.956 0 343.111 0C320.267 0 297.511 0 274.489 0C251.556 0 228.444 0 205.511 0C182.489 0 159.733 0 136.889 0C114.044 0 91.2889 0 68.4444 0C45.6 0 22.8444 0 11.3778 0H0V274.372Z" fill="#9472F5"/>
<path d="M0 277.473L11.3778 265.847C22.8444 254.221 45.6 230.969 68.4444 224.303C91.2889 217.483 114.044 227.404 136.889 232.984C159.733 238.719 182.489 240.27 205.511 231.434C228.444 222.753 251.556 203.532 274.489 205.702C297.511 207.717 320.267 230.969 343.111 225.078C365.956 219.033 388.711 184 411.556 185.24C434.4 186.48 457.156 224.303 468.622 243.06L480 261.971V0H468.622C457.156 0 434.4 0 411.556 0C388.711 0 365.956 0 343.111 0C320.267 0 297.511 0 274.489 0C251.556 0 228.444 0 205.511 0C182.489 0 159.733 0 136.889 0C114.044 0 91.2889 0 68.4444 0C45.6 0 22.8444 0 11.3778 0H0V277.473Z" fill="#8461F1"/>
<path d="M0 168.964L11.3778 166.639C22.8444 164.313 45.6 159.663 68.4444 147.727C91.2889 135.946 114.044 116.725 136.889 121.685C159.733 126.645 182.489 155.478 205.511 163.228C228.444 170.979 251.556 157.648 274.489 148.502C297.511 139.511 320.267 134.861 343.111 122.77C365.956 110.524 388.711 90.9924 411.556 91.9225C434.4 93.0076 457.156 114.709 468.622 125.56L480 136.411V0H468.622C457.156 0 434.4 0 411.556 0C388.711 0 365.956 0 343.111 0C320.267 0 297.511 0 274.489 0C251.556 0 228.444 0 205.511 0C182.489 0 159.733 0 136.889 0C114.044 0 91.2889 0 68.4444 0C45.6 0 22.8444 0 11.3778 0H0V168.964Z" fill="#7350EC"/>
</svg>
