<svg width="380" height="380" viewBox="0 0 380 380" fill="none" xmlns="http://www.w3.org/2000/svg">
<path d="M362.609 187.356C422.164 283.036 317.903 380 214.036 380C110.169 380 85.524 250.023 14.0581 210.127C-57.4077 170.232 161.717 -16.2493 264.187 1.1414C438.463 30.7186 303.055 91.6763 362.609 187.356Z" fill="#9979F7"/>
<path d="M327.504 189.925C327.504 278.587 300.592 347.893 214.036 347.893C127.481 347.893 44.1487 254.827 44.1487 166.165C44.1487 77.5032 122.466 65.9902 209.021 65.9902C295.577 65.9902 327.504 101.263 327.504 189.925Z" fill="#8D6CF4"/>
<path d="M327.504 189.925C327.504 278.587 300.592 347.893 214.036 347.893C127.481 347.893 44.1487 254.827 44.1487 166.165C44.1487 77.5032 122.466 65.9902 209.021 65.9902C295.577 65.9902 327.504 101.263 327.504 189.925Z" fill="#8D6CF4"/>
<path d="M339.415 187.358C347.296 257.826 248.515 265.874 208.394 293.312C168.273 320.75 112.48 258.287 112.48 187.358C112.48 116.428 160.751 106.447 160.751 106.447C160.751 106.447 330.731 109.722 339.415 187.358Z" fill="#7E5BEF"/>
<path d="M308.07 187.354C308.07 240.551 251.65 282.391 212.156 252.21C172.662 222.029 120.003 240.551 120.003 187.354C120.003 134.157 168.9 187.997 217.171 136.625C265.441 85.2533 308.07 134.157 308.07 187.354Z" fill="#7350EC"/>
</svg>
