<svg width="1000" height="800" viewBox="0 0 1000 800" fill="none" xmlns="http://www.w3.org/2000/svg">
<path d="M0 626.251L23.7037 627.904C47.5926 629.765 95 633.072 142.593 612.817C190.185 592.562 237.593 548.331 285.185 533.657C332.778 518.776 380.185 533.243 428.148 584.914C475.926 636.585 524.074 725.459 571.852 768.243C619.815 810.819 667.222 807.513 714.815 776.51C762.407 745.507 809.815 686.809 857.407 670.688C905 654.567 952.407 680.609 976.296 693.837L1000 706.858V0H976.296C952.407 0 905 0 857.407 0C809.815 0 762.407 0 714.815 0C667.222 0 619.815 0 571.852 0C524.074 0 475.926 0 428.148 0C380.185 0 332.778 0 285.185 0C237.593 0 190.185 0 142.593 0C95 0 47.5926 0 23.7037 0H0V626.251Z" fill="#B293FE"/>
<path d="M0 502.241L23.7037 516.089C47.5926 529.73 95 557.425 142.593 540.891C190.185 524.356 237.593 463.591 285.185 446.436C332.778 429.282 380.185 455.324 428.148 496.66C475.926 537.997 524.074 594.628 571.852 623.771C619.815 653.12 667.222 655.187 714.815 621.497C762.407 587.601 809.815 518.156 857.407 516.709C905 515.262 952.407 582.227 976.296 615.503L1000 648.986V0H976.296C952.407 0 905 0 857.407 0C809.815 0 762.407 0 714.815 0C667.222 0 619.815 0 571.852 0C524.074 0 475.926 0 428.148 0C380.185 0 332.778 0 285.185 0C237.593 0 190.185 0 142.593 0C95 0 47.5926 0 23.7037 0H0V502.241Z" fill="#A382FA"/>
<path d="M0 365.83L23.7037 388.565C47.5926 411.3 95 456.771 142.593 470.618C190.185 484.259 237.593 466.485 285.185 451.603C332.778 436.722 380.185 425.148 428.148 428.248C475.926 431.348 524.074 449.123 571.852 455.737C619.815 462.351 667.222 457.391 714.815 429.282C762.407 400.966 809.815 349.295 857.407 355.082C905 361.076 952.407 424.321 976.296 456.151L1000 487.773V0H976.296C952.407 0 905 0 857.407 0C809.815 0 762.407 0 714.815 0C667.222 0 619.815 0 571.852 0C524.074 0 475.926 0 428.148 0C380.185 0 332.778 0 285.185 0C237.593 0 190.185 0 142.593 0C95 0 47.5926 0 23.7037 0H0V365.83Z" fill="#9472F5"/>
<path d="M0 369.963L23.7037 354.462C47.5926 338.961 95 307.958 142.593 299.071C190.185 289.977 237.593 303.205 285.185 310.645C332.778 318.293 380.185 320.359 428.148 308.578C475.926 297.004 524.074 271.375 571.852 274.269C619.815 276.956 667.222 307.958 714.815 300.104C762.407 292.044 809.815 245.333 857.407 246.987C905 248.64 952.407 299.071 976.296 324.08L1000 349.295V0H976.296C952.407 0 905 0 857.407 0C809.815 0 762.407 0 714.815 0C667.222 0 619.815 0 571.852 0C524.074 0 475.926 0 428.148 0C380.185 0 332.778 0 285.185 0C237.593 0 190.185 0 142.593 0C95 0 47.5926 0 23.7037 0H0V369.963Z" fill="#8461F1"/>
<path d="M0 225.285L23.7037 222.185C47.5926 219.085 95 212.884 142.593 196.969C190.185 181.261 237.593 155.633 285.185 162.247C332.778 168.86 380.185 207.304 428.148 217.638C475.926 227.972 524.074 210.197 571.852 198.003C619.815 186.015 667.222 179.815 714.815 163.693C762.407 147.365 809.815 121.323 857.407 122.563C905 124.01 952.407 152.946 976.296 167.414L1000 181.881V0H976.296C952.407 0 905 0 857.407 0C809.815 0 762.407 0 714.815 0C667.222 0 619.815 0 571.852 0C524.074 0 475.926 0 428.148 0C380.185 0 332.778 0 285.185 0C237.593 0 190.185 0 142.593 0C95 0 47.5926 0 23.7037 0H0V225.285Z" fill="#7350EC"/>
</svg>
