<svg width="397" height="490" viewBox="0 0 397 490" fill="none" xmlns="http://www.w3.org/2000/svg">
<path d="M236.195 117.12C245.202 56.0414 397 0 397 0L397 480.491L2.29749 489C2.29749 489 -17.0736 356.645 56.6787 306.313C143.221 247.253 263.678 358.867 289.992 270.777C305.039 220.404 220.992 220.225 236.195 117.12Z" fill="#7350EC"/>
<path d="M236.195 117.12C245.202 56.0414 397 0 397 0L397 480.491L2.29749 489C2.29749 489 -17.0736 356.645 56.6787 306.313C143.221 247.253 263.678 358.867 289.992 270.777C305.039 220.404 220.992 220.225 236.195 117.12Z" fill="#7350EC"/>
<path d="M249.967 169.678C258.202 118.217 397 71 397 71L397 475.831L36.1007 483C36.1007 483 18.3886 371.486 85.8246 329.08C164.955 279.319 275.096 373.358 299.156 299.139C312.914 256.699 236.066 256.548 249.967 169.678Z" fill="#7350EC"/>
<path d="M249.967 169.678C258.202 118.217 397 71 397 71L397 475.831L36.1007 483C36.1007 483 18.3886 371.486 85.8246 329.08C164.955 279.319 275.096 373.358 299.156 299.139C312.914 256.699 236.066 256.548 249.967 169.678Z" fill="#7E5BEF"/>
<path d="M316.978 136.439C353.95 99.1646 397 71 397 71L397 481.727L36 489C36 489 247.958 433.706 216.45 418.995C131.514 379.34 361.49 364.716 342.985 255.143C335.45 210.528 233.954 220.141 316.978 136.439Z" fill="#7350EC"/>
<path d="M316.978 136.439C353.95 99.1646 397 71 397 71L397 481.727L36 489C36 489 247.958 433.706 216.45 418.995C131.514 379.34 361.49 364.716 342.985 255.143C335.45 210.528 233.954 220.141 316.978 136.439Z" fill="#8D6CF4"/>
<path d="M316.978 133.439C353.95 96.1646 397 68 397 68L397 489.5L37.5 486C37.5 486 200.5 396 296 427.5C398.239 461.223 283.5 375 379.5 299.5C415.065 271.529 254.5 196.427 316.978 133.439Z" fill="#7350EC"/>
<path d="M316.978 133.439C353.95 96.1646 397 68 397 68L397 489.5L37.5 486C37.5 486 200.5 396 296 427.5C398.239 461.223 283.5 375 379.5 299.5C415.065 271.529 254.5 196.427 316.978 133.439Z" fill="#9979F7"/>
</svg>
