<svg width="397" height="978" viewBox="0 0 397 978" fill="none" xmlns="http://www.w3.org/2000/svg">
<path d="M160.805 371.88C151.798 432.959 0 489 0 489V0H394.702C394.702 0 414.074 132.355 340.321 182.687C253.779 241.747 133.322 130.133 107.008 218.223C91.9614 268.596 176.008 268.775 160.805 371.88Z" fill="#7350EC"/>
<path d="M160.805 371.88C151.798 432.959 0 489 0 489V0H394.702C394.702 0 414.074 132.355 340.321 182.687C253.779 241.747 133.322 130.133 107.008 218.223C91.9614 268.596 176.008 268.775 160.805 371.88Z" fill="#7350EC"/>
<path d="M147.033 319.322C138.798 370.783 0 418 0 418V13.1689L360.899 6C360.899 6 378.611 117.514 311.175 159.92C232.045 209.681 121.904 115.642 97.8438 189.861C84.0856 232.301 160.934 232.452 147.033 319.322Z" fill="#7350EC"/>
<path d="M147.033 319.322C138.798 370.783 0 418 0 418V13.1689L360.899 6C360.899 6 378.611 117.514 311.175 159.92C232.045 209.681 121.904 115.642 97.8438 189.861C84.0856 232.301 160.934 232.452 147.033 319.322Z" fill="#7E5BEF"/>
<path d="M80.0223 352.561C43.0497 389.835 0 418 0 418V7.27329L361 0C361 0 149.042 55.2937 180.55 70.0049C265.486 109.66 35.5099 124.284 54.0151 233.857C61.5498 278.472 163.046 268.859 80.0223 352.561Z" fill="#7350EC"/>
<path d="M80.0223 352.561C43.0497 389.835 0 418 0 418V7.27329L361 0C361 0 149.042 55.2937 180.55 70.0049C265.486 109.66 35.5099 124.284 54.0151 233.857C61.5498 278.472 163.046 268.859 80.0223 352.561Z" fill="#8D6CF4"/>
<path d="M80.0223 355.561C43.0497 392.835 0 421 0 421V0H361C361 0 196.5 93 101 61.5C-1.23911 27.7772 113.5 114 17.5 189.5C-18.0654 217.471 142.5 292.573 80.0223 355.561Z" fill="#7350EC"/>
<path d="M80.0223 355.561C43.0497 392.835 0 421 0 421V0H361C361 0 196.5 93 101 61.5C-1.23911 27.7772 113.5 114 17.5 189.5C-18.0654 217.471 142.5 292.573 80.0223 355.561Z" fill="#9979F7"/>
<path d="M236.195 606.12C245.202 545.041 397 489 397 489V978H2.29752C2.29752 978 -17.0736 845.645 56.6788 795.313C143.221 736.253 263.678 847.867 289.992 759.777C305.039 709.404 220.992 709.225 236.195 606.12Z" fill="#7350EC"/>
<path d="M236.195 606.12C245.202 545.041 397 489 397 489V978H2.29752C2.29752 978 -17.0736 845.645 56.6788 795.313C143.221 736.253 263.678 847.867 289.992 759.777C305.039 709.404 220.992 709.225 236.195 606.12Z" fill="#7350EC"/>
<path d="M249.967 658.678C258.202 607.217 397 560 397 560V964.831L36.1007 972C36.1007 972 18.3886 860.486 85.8246 818.08C164.955 768.319 275.096 862.358 299.156 788.139C312.914 745.699 236.066 745.548 249.967 658.678Z" fill="#7350EC"/>
<path d="M249.967 658.678C258.202 607.217 397 560 397 560V964.831L36.1007 972C36.1007 972 18.3886 860.486 85.8246 818.08C164.955 768.319 275.096 862.358 299.156 788.139C312.914 745.699 236.066 745.548 249.967 658.678Z" fill="#7E5BEF"/>
<path d="M316.978 625.439C353.95 588.165 397 560 397 560V970.727L36 978C36 978 247.958 922.706 216.45 907.995C131.514 868.34 361.49 853.716 342.985 744.143C335.45 699.528 233.954 709.141 316.978 625.439Z" fill="#7350EC"/>
<path d="M316.978 625.439C353.95 588.165 397 560 397 560V970.727L36 978C36 978 247.958 922.706 216.45 907.995C131.514 868.34 361.49 853.716 342.985 744.143C335.45 699.528 233.954 709.141 316.978 625.439Z" fill="#8D6CF4"/>
<path d="M316.978 622.439C353.95 585.165 397 557 397 557V978H36C36 978 200.5 885 296 916.5C398.239 950.223 283.5 864 379.5 788.5C415.065 760.529 254.5 685.427 316.978 622.439Z" fill="#7350EC"/>
<path d="M316.978 622.439C353.95 585.165 397 557 397 557V978H36C36 978 200.5 885 296 916.5C398.239 950.223 283.5 864 379.5 788.5C415.065 760.529 254.5 685.427 316.978 622.439Z" fill="#9979F7"/>
</svg>
