<svg width="1920" height="1080" viewBox="0 0 1920 1080" fill="none" xmlns="http://www.w3.org/2000/svg">
<path d="M0 845.439L45.5111 847.671C91.3778 850.182 182.4 854.647 273.778 827.302C365.156 799.958 456.178 740.247 547.556 720.437C638.933 700.347 729.956 719.879 822.044 789.634C913.778 859.39 1006.22 979.37 1097.96 1037.13C1190.04 1094.61 1281.07 1090.14 1372.44 1048.29C1463.82 1006.44 1554.84 927.193 1646.22 905.429C1737.6 883.665 1828.62 918.822 1874.49 936.679L1920 954.258V0H1874.49C1828.62 0 1737.6 0 1646.22 0C1554.84 0 1463.82 0 1372.44 0C1281.07 0 1190.04 0 1097.96 0C1006.22 0 913.778 0 822.044 0C729.956 0 638.933 0 547.556 0C456.178 0 365.156 0 273.778 0C182.4 0 91.3778 0 45.5111 0H0V845.439Z" fill="#B293FE"/>
<path d="M0 678.025L45.5111 696.72C91.3778 715.135 182.4 752.524 273.778 730.203C365.156 707.881 456.178 625.848 547.556 602.689C638.933 579.53 729.956 614.687 822.044 670.492C913.778 726.296 1006.22 802.748 1097.96 842.091C1190.04 881.712 1281.07 884.502 1372.44 839.021C1463.82 793.262 1554.84 699.51 1646.22 697.557C1737.6 695.604 1828.62 786.007 1874.49 830.93L1920 876.131V0H1874.49C1828.62 0 1737.6 0 1646.22 0C1554.84 0 1463.82 0 1372.44 0C1281.07 0 1190.04 0 1097.96 0C1006.22 0 913.778 0 822.044 0C729.956 0 638.933 0 547.556 0C456.178 0 365.156 0 273.778 0C182.4 0 91.3778 0 45.5111 0H0V678.025Z" fill="#A382FA"/>
<path d="M0 493.87L45.5111 524.563C91.3778 555.255 182.4 616.64 273.778 635.335C365.156 653.75 456.178 629.754 547.556 609.665C638.933 589.575 729.956 573.95 822.044 578.135C913.778 582.321 1006.22 606.316 1097.96 615.245C1190.04 624.174 1281.07 617.477 1372.44 579.53C1463.82 541.304 1554.84 471.548 1646.22 479.361C1737.6 487.453 1828.62 572.834 1874.49 615.803L1920 658.494V0H1874.49C1828.62 0 1737.6 0 1646.22 0C1554.84 0 1463.82 0 1372.44 0C1281.07 0 1190.04 0 1097.96 0C1006.22 0 913.778 0 822.044 0C729.956 0 638.933 0 547.556 0C456.178 0 365.156 0 273.778 0C182.4 0 91.3778 0 45.5111 0H0V493.87Z" fill="#9472F5"/>
<path d="M0 499.451L45.5111 478.524C91.3778 457.597 182.4 415.744 273.778 403.746C365.156 391.469 456.178 409.326 547.556 419.371C638.933 429.695 729.956 432.485 822.044 416.581C913.778 400.956 1006.22 366.357 1097.96 370.263C1190.04 373.89 1281.07 415.744 1372.44 405.141C1463.82 394.259 1554.84 331.2 1646.22 333.432C1737.6 335.664 1828.62 403.746 1874.49 437.508L1920 471.548V0H1874.49C1828.62 0 1737.6 0 1646.22 0C1554.84 0 1463.82 0 1372.44 0C1281.07 0 1190.04 0 1097.96 0C1006.22 0 913.778 0 822.044 0C729.956 0 638.933 0 547.556 0C456.178 0 365.156 0 273.778 0C182.4 0 91.3778 0 45.5111 0H0V499.451Z" fill="#8461F1"/>
<path d="M0 304.135L45.5111 299.949C91.3778 295.764 182.4 287.393 273.778 265.909C365.156 244.703 456.178 210.104 547.556 219.033C638.933 227.962 729.956 279.86 822.044 293.811C913.778 307.762 1006.22 283.766 1097.96 267.304C1190.04 251.12 1281.07 242.75 1372.44 220.986C1463.82 198.943 1554.84 163.786 1646.22 165.46C1737.6 167.414 1828.62 206.477 1874.49 226.008L1920 245.54V0H1874.49C1828.62 0 1737.6 0 1646.22 0C1554.84 0 1463.82 0 1372.44 0C1281.07 0 1190.04 0 1097.96 0C1006.22 0 913.778 0 822.044 0C729.956 0 638.933 0 547.556 0C456.178 0 365.156 0 273.778 0C182.4 0 91.3778 0 45.5111 0H0V304.135Z" fill="#7350EC"/>
</svg>
