<svg width="28px" height="28px" viewBox="0 0 28 28" version="1.1" xmlns="http://www.w3.org/2000/svg" xmlns:xlink="http://www.w3.org/1999/xlink">
    <g stroke="none" stroke-width="1" fill="none" fill-rule="evenodd">
        <g fill="#333333">
            <path d="M26.8662033,8.37880104 L22.18245,8.37880104 L26.9973936,3.56559513 C26.2397915,2.62119896 25.3831451,1.76020851 24.4396177,1 L19.6238054,5.81841877 L19.6238054,1.13466551 L16,1.13466551 L16,12 L26.8662033,12 L26.8662033,8.37880104 Z M26.8662033,19.621199 L22.18245,19.621199 L26.9973936,24.4344049 C26.2397915,25.378801 25.3831451,26.2397915 24.4396177,27 L19.6238054,22.1815812 L19.6238054,26.8653345 L16,26.8653345 L16,16 L26.8662033,16 L26.8662033,19.621199 Z M1.13119027,8.37880104 L5.81494353,8.37880104 L1,3.56559513 C1.75760209,2.62119896 2.61424848,1.76020851 3.55777585,1 L8.37358818,5.81841877 L8.37358818,1.13466551 L11.9973936,1.13466551 L11.9973936,12 L1.13119027,12 L1.13119027,8.37880104 Z M1.13119027,19.621199 L5.81494353,19.621199 L1,24.4344049 C1.75760209,25.378801 2.61424848,26.2397915 3.55777585,27 L8.37358818,22.1815812 L8.37358818,26.8653345 L11.9973936,26.8653345 L11.9973936,16 L1.13119027,16 L1.13119027,19.621199 Z"></path>
        </g>
    </g>
</svg>